<svg version="1.1" xmlns="http://www.w3.org/2000/svg" viewBox="0 0 1906.1084920133744 391.57142857142856" width="1906.1084920133744" height="391.57142857142856">
  <!-- svg-source:excalidraw -->
  
  <defs>
    <style>
      @font-face {
        font-family: "Virgil";
        src: url("https://excalidraw.com/Virgil.woff2");
      }
      @font-face {
        font-family: "Cascadia";
        src: url("https://excalidraw.com/Cascadia.woff2");
      }
    </style>
  </defs>
  <rect x="0" y="0" width="1906.1084920133744" height="391.57142857142856" fill="#ffffff"></rect><g stroke-linecap="round" transform="translate(12.137474983685195 34.588625907254084) rotate(0 63.941917866069474 38.268516949888834)"><path d="M-1.77 -1.79 C37.76 0.1, 72.73 -0.48, 127.64 0.09 M0.76 0.3 C30.68 0.92, 60.99 -0.22, 126.98 0.84 M126.36 -1.26 C128.75 28.86, 128.73 54.72, 129.38 78.3 M127.1 -0.22 C129.1 26.2, 128.98 52.57, 128.31 77.45 M125.91 76.09 C87.46 76.8, 48.46 75.41, -1.13 74.87 M127.35 76.29 C79.95 76.77, 32.92 76.65, -0.75 75.73 M-0.87 75.75 C2.04 48.84, 0.05 23.5, 1.92 1.09 M-0.45 76.17 C-1.31 55.78, 0.58 34.68, 0.47 -0.04" stroke="#000000" stroke-width="1" fill="none"></path></g><g stroke-linecap="round"><g transform="translate(11.061877232789982 45.305160299498255) rotate(0 64.4088963695877 0.11523185002386072)"><path d="M-1.06 -1.08 C20.44 -1.04, 108.16 -0.26, 129.88 -0.16 M0.58 0.97 C21.94 1.23, 108.13 1.36, 129.48 1.29" stroke="#000000" stroke-width="1" fill="none"></path></g></g><g stroke-linecap="round" transform="translate(16.625510452640015 38.8601957072629) rotate(0 2.5009765625 2.5009765625)"><path d="M5 2.5 C5 2.65, 4.99 2.79, 4.96 2.94 C4.94 3.08, 4.9 3.22, 4.85 3.36 C4.8 3.49, 4.74 3.63, 4.67 3.75 C4.59 3.88, 4.51 4, 4.42 4.11 C4.32 4.22, 4.22 4.32, 4.11 4.42 C4 4.51, 3.88 4.59, 3.75 4.67 C3.63 4.74, 3.49 4.8, 3.36 4.85 C3.22 4.9, 3.08 4.94, 2.94 4.96 C2.79 4.99, 2.65 5, 2.5 5 C2.36 5, 2.21 4.99, 2.07 4.96 C1.92 4.94, 1.78 4.9, 1.65 4.85 C1.51 4.8, 1.38 4.74, 1.25 4.67 C1.13 4.59, 1 4.51, 0.89 4.42 C0.78 4.32, 0.68 4.22, 0.59 4.11 C0.49 4, 0.41 3.88, 0.34 3.75 C0.26 3.63, 0.2 3.49, 0.15 3.36 C0.1 3.22, 0.06 3.08, 0.04 2.94 C0.01 2.79, 0 2.65, 0 2.5 C0 2.36, 0.01 2.21, 0.04 2.07 C0.06 1.92, 0.1 1.78, 0.15 1.65 C0.2 1.51, 0.26 1.38, 0.34 1.25 C0.41 1.13, 0.49 1, 0.59 0.89 C0.68 0.78, 0.78 0.68, 0.89 0.59 C1 0.49, 1.13 0.41, 1.25 0.34 C1.38 0.26, 1.51 0.2, 1.65 0.15 C1.78 0.1, 1.92 0.06, 2.07 0.04 C2.21 0.01, 2.36 0, 2.5 0 C2.65 0, 2.79 0.01, 2.94 0.04 C3.08 0.06, 3.22 0.1, 3.36 0.15 C3.49 0.2, 3.63 0.26, 3.75 0.34 C3.88 0.41, 4 0.49, 4.11 0.59 C4.22 0.68, 4.32 0.78, 4.42 0.89 C4.51 1, 4.59 1.13, 4.67 1.25 C4.74 1.38, 4.8 1.51, 4.85 1.65 C4.9 1.78, 4.94 1.92, 4.96 2.07 C4.99 2.21, 5 2.43, 5 2.5 C5.01 2.57, 5.01 2.43, 5 2.5" stroke="none" stroke-width="0" fill="#fa5252"></path><path d="M5 2.5 C5 2.65, 4.99 2.79, 4.96 2.94 C4.94 3.08, 4.9 3.22, 4.85 3.36 C4.8 3.49, 4.74 3.63, 4.67 3.75 C4.59 3.88, 4.51 4, 4.42 4.11 C4.32 4.22, 4.22 4.32, 4.11 4.42 C4 4.51, 3.88 4.59, 3.75 4.67 C3.63 4.74, 3.49 4.8, 3.36 4.85 C3.22 4.9, 3.08 4.94, 2.94 4.96 C2.79 4.99, 2.65 5, 2.5 5 C2.36 5, 2.21 4.99, 2.07 4.96 C1.92 4.94, 1.78 4.9, 1.65 4.85 C1.51 4.8, 1.38 4.74, 1.25 4.67 C1.13 4.59, 1 4.51, 0.89 4.42 C0.78 4.32, 0.68 4.22, 0.59 4.11 C0.49 4, 0.41 3.88, 0.34 3.75 C0.26 3.63, 0.2 3.49, 0.15 3.36 C0.1 3.22, 0.06 3.08, 0.04 2.94 C0.01 2.79, 0 2.65, 0 2.5 C0 2.36, 0.01 2.21, 0.04 2.07 C0.06 1.92, 0.1 1.78, 0.15 1.65 C0.2 1.51, 0.26 1.38, 0.34 1.25 C0.41 1.13, 0.49 1, 0.59 0.89 C0.68 0.78, 0.78 0.68, 0.89 0.59 C1 0.49, 1.13 0.41, 1.25 0.34 C1.38 0.26, 1.51 0.2, 1.65 0.15 C1.78 0.1, 1.92 0.06, 2.07 0.04 C2.21 0.01, 2.36 0, 2.5 0 C2.65 0, 2.79 0.01, 2.94 0.04 C3.08 0.06, 3.22 0.1, 3.36 0.15 C3.49 0.2, 3.63 0.26, 3.75 0.34 C3.88 0.41, 4 0.49, 4.11 0.59 C4.22 0.68, 4.32 0.78, 4.42 0.89 C4.51 1, 4.59 1.13, 4.67 1.25 C4.74 1.38, 4.8 1.51, 4.85 1.65 C4.9 1.78, 4.94 1.92, 4.96 2.07 C4.99 2.21, 5 2.43, 5 2.5 C5.01 2.57, 5.01 2.43, 5 2.5" stroke="#000000" stroke-width="1" fill="none"></path></g><g stroke-linecap="round" transform="translate(26.888205765140015 38.8601957072629) rotate(0 2.5009765625 2.5009765625)"><path d="M5 2.5 C5 2.65, 4.99 2.79, 4.96 2.94 C4.94 3.08, 4.9 3.22, 4.85 3.36 C4.8 3.49, 4.74 3.63, 4.67 3.75 C4.59 3.88, 4.51 4, 4.42 4.11 C4.32 4.22, 4.22 4.32, 4.11 4.42 C4 4.51, 3.88 4.59, 3.75 4.67 C3.63 4.74, 3.49 4.8, 3.36 4.85 C3.22 4.9, 3.08 4.94, 2.94 4.96 C2.79 4.99, 2.65 5, 2.5 5 C2.36 5, 2.21 4.99, 2.07 4.96 C1.92 4.94, 1.78 4.9, 1.65 4.85 C1.51 4.8, 1.38 4.74, 1.25 4.67 C1.13 4.59, 1 4.51, 0.89 4.42 C0.78 4.32, 0.68 4.22, 0.59 4.11 C0.49 4, 0.41 3.88, 0.34 3.75 C0.26 3.63, 0.2 3.49, 0.15 3.36 C0.1 3.22, 0.06 3.08, 0.04 2.94 C0.01 2.79, 0 2.65, 0 2.5 C0 2.36, 0.01 2.21, 0.04 2.07 C0.06 1.92, 0.1 1.78, 0.15 1.65 C0.2 1.51, 0.26 1.38, 0.34 1.25 C0.41 1.13, 0.49 1, 0.59 0.89 C0.68 0.78, 0.78 0.68, 0.89 0.59 C1 0.49, 1.13 0.41, 1.25 0.34 C1.38 0.26, 1.51 0.2, 1.65 0.15 C1.78 0.1, 1.92 0.06, 2.07 0.04 C2.21 0.01, 2.36 0, 2.5 0 C2.65 0, 2.79 0.01, 2.94 0.04 C3.08 0.06, 3.22 0.1, 3.36 0.15 C3.49 0.2, 3.63 0.26, 3.75 0.34 C3.88 0.41, 4 0.49, 4.11 0.59 C4.22 0.68, 4.32 0.78, 4.42 0.89 C4.51 1, 4.59 1.13, 4.67 1.25 C4.74 1.38, 4.8 1.51, 4.85 1.65 C4.9 1.78, 4.94 1.92, 4.96 2.07 C4.99 2.21, 5 2.43, 5 2.5 C5.01 2.57, 5.01 2.43, 5 2.5" stroke="none" stroke-width="0" fill="#fab005"></path><path d="M5 2.5 C5 2.65, 4.99 2.79, 4.96 2.94 C4.94 3.08, 4.9 3.22, 4.85 3.36 C4.8 3.49, 4.74 3.63, 4.67 3.75 C4.59 3.88, 4.51 4, 4.42 4.11 C4.32 4.22, 4.22 4.32, 4.11 4.42 C4 4.51, 3.88 4.59, 3.75 4.67 C3.63 4.74, 3.49 4.8, 3.36 4.85 C3.22 4.9, 3.08 4.94, 2.94 4.96 C2.79 4.99, 2.65 5, 2.5 5 C2.36 5, 2.21 4.99, 2.07 4.96 C1.92 4.94, 1.78 4.9, 1.65 4.85 C1.51 4.8, 1.38 4.74, 1.25 4.67 C1.13 4.59, 1 4.51, 0.89 4.42 C0.78 4.32, 0.68 4.22, 0.59 4.11 C0.49 4, 0.41 3.88, 0.34 3.75 C0.26 3.63, 0.2 3.49, 0.15 3.36 C0.1 3.22, 0.06 3.08, 0.04 2.94 C0.01 2.79, 0 2.65, 0 2.5 C0 2.36, 0.01 2.21, 0.04 2.07 C0.06 1.92, 0.1 1.78, 0.15 1.65 C0.2 1.51, 0.26 1.38, 0.34 1.25 C0.41 1.13, 0.49 1, 0.59 0.89 C0.68 0.78, 0.78 0.68, 0.89 0.59 C1 0.49, 1.13 0.41, 1.25 0.34 C1.38 0.26, 1.51 0.2, 1.65 0.15 C1.78 0.1, 1.92 0.06, 2.07 0.04 C2.21 0.01, 2.36 0, 2.5 0 C2.65 0, 2.79 0.01, 2.94 0.04 C3.08 0.06, 3.22 0.1, 3.36 0.15 C3.49 0.2, 3.63 0.26, 3.75 0.34 C3.88 0.41, 4 0.49, 4.11 0.59 C4.22 0.68, 4.32 0.78, 4.42 0.89 C4.51 1, 4.59 1.13, 4.67 1.25 C4.74 1.38, 4.8 1.51, 4.85 1.65 C4.9 1.78, 4.94 1.92, 4.96 2.07 C4.99 2.21, 5 2.43, 5 2.5 C5.01 2.57, 5.01 2.43, 5 2.5" stroke="#000000" stroke-width="1" fill="none"></path></g><g stroke-linecap="round" transform="translate(37.6016222314862 39.31091686110909) rotate(0 2.5009765625 2.5009765625)"><path d="M5 2.5 C5 2.65, 4.99 2.79, 4.96 2.94 C4.94 3.08, 4.9 3.22, 4.85 3.36 C4.8 3.49, 4.74 3.63, 4.67 3.75 C4.59 3.88, 4.51 4, 4.42 4.11 C4.32 4.22, 4.22 4.32, 4.11 4.42 C4 4.51, 3.88 4.59, 3.75 4.67 C3.63 4.74, 3.49 4.8, 3.36 4.85 C3.22 4.9, 3.08 4.94, 2.94 4.96 C2.79 4.99, 2.65 5, 2.5 5 C2.36 5, 2.21 4.99, 2.07 4.96 C1.92 4.94, 1.78 4.9, 1.65 4.85 C1.51 4.8, 1.38 4.74, 1.25 4.67 C1.13 4.59, 1 4.51, 0.89 4.42 C0.78 4.32, 0.68 4.22, 0.59 4.11 C0.49 4, 0.41 3.88, 0.34 3.75 C0.26 3.63, 0.2 3.49, 0.15 3.36 C0.1 3.22, 0.06 3.08, 0.04 2.94 C0.01 2.79, 0 2.65, 0 2.5 C0 2.36, 0.01 2.21, 0.04 2.07 C0.06 1.92, 0.1 1.78, 0.15 1.65 C0.2 1.51, 0.26 1.38, 0.34 1.25 C0.41 1.13, 0.49 1, 0.59 0.89 C0.68 0.78, 0.78 0.68, 0.89 0.59 C1 0.49, 1.13 0.41, 1.25 0.34 C1.38 0.26, 1.51 0.2, 1.65 0.15 C1.78 0.1, 1.92 0.06, 2.07 0.04 C2.21 0.01, 2.36 0, 2.5 0 C2.65 0, 2.79 0.01, 2.94 0.04 C3.08 0.06, 3.22 0.1, 3.36 0.15 C3.49 0.2, 3.63 0.26, 3.75 0.34 C3.88 0.41, 4 0.49, 4.11 0.59 C4.22 0.68, 4.32 0.78, 4.42 0.89 C4.51 1, 4.59 1.13, 4.67 1.25 C4.74 1.38, 4.8 1.51, 4.85 1.65 C4.9 1.78, 4.94 1.92, 4.96 2.07 C4.99 2.21, 5 2.43, 5 2.5 C5.01 2.57, 5.01 2.43, 5 2.5" stroke="none" stroke-width="0" fill="#40c057"></path><path d="M5 2.5 C5 2.65, 4.99 2.79, 4.96 2.94 C4.94 3.08, 4.9 3.22, 4.85 3.36 C4.8 3.49, 4.74 3.63, 4.67 3.75 C4.59 3.88, 4.51 4, 4.42 4.11 C4.32 4.22, 4.22 4.32, 4.11 4.42 C4 4.51, 3.88 4.59, 3.75 4.67 C3.63 4.74, 3.49 4.8, 3.36 4.85 C3.22 4.9, 3.08 4.94, 2.94 4.96 C2.79 4.99, 2.65 5, 2.5 5 C2.36 5, 2.21 4.99, 2.07 4.96 C1.92 4.94, 1.78 4.9, 1.65 4.85 C1.51 4.8, 1.38 4.74, 1.25 4.67 C1.13 4.59, 1 4.51, 0.89 4.42 C0.78 4.32, 0.68 4.22, 0.59 4.11 C0.49 4, 0.41 3.88, 0.34 3.75 C0.26 3.63, 0.2 3.49, 0.15 3.36 C0.1 3.22, 0.06 3.08, 0.04 2.94 C0.01 2.79, 0 2.65, 0 2.5 C0 2.36, 0.01 2.21, 0.04 2.07 C0.06 1.92, 0.1 1.78, 0.15 1.65 C0.2 1.51, 0.26 1.38, 0.34 1.25 C0.41 1.13, 0.49 1, 0.59 0.89 C0.68 0.78, 0.78 0.68, 0.89 0.59 C1 0.49, 1.13 0.41, 1.25 0.34 C1.38 0.26, 1.51 0.2, 1.65 0.15 C1.78 0.1, 1.92 0.06, 2.07 0.04 C2.21 0.01, 2.36 0, 2.5 0 C2.65 0, 2.79 0.01, 2.94 0.04 C3.08 0.06, 3.22 0.1, 3.36 0.15 C3.49 0.2, 3.63 0.26, 3.75 0.34 C3.88 0.41, 4 0.49, 4.11 0.59 C4.22 0.68, 4.32 0.78, 4.42 0.89 C4.51 1, 4.59 1.13, 4.67 1.25 C4.74 1.38, 4.8 1.51, 4.85 1.65 C4.9 1.78, 4.94 1.92, 4.96 2.07 C4.99 2.21, 5 2.43, 5 2.5 C5.01 2.57, 5.01 2.43, 5 2.5" stroke="#000000" stroke-width="1" fill="none"></path></g><g stroke-opacity="0.9" fill-opacity="0.9" stroke-linecap="round" transform="translate(53.62868322111342 55.36328573912493) rotate(0 21.360101269687846 21.360101269687874)"><path d="M13.84 1.29 C17.57 -0.43, 22.95 0.32, 27.14 1.67 C31.34 3.03, 36.32 5.57, 39.02 9.43 C41.71 13.3, 43.73 20.31, 43.31 24.85 C42.9 29.39, 39.91 33.69, 36.52 36.66 C33.14 39.63, 27.76 42.43, 23.02 42.67 C18.29 42.91, 12.02 40.81, 8.12 38.1 C4.22 35.38, 0.42 30.77, -0.39 26.36 C-1.2 21.95, 0.7 15.85, 3.24 11.64 C5.78 7.44, 12.64 3.01, 14.86 1.13 C17.09 -0.74, 16.45 0, 16.57 0.39 M23.02 1.44 C27.01 1.33, 31.29 3.17, 34.79 6.13 C38.28 9.1, 43.21 14.71, 43.99 19.22 C44.77 23.74, 42.23 29.3, 39.48 33.23 C36.73 37.15, 32.04 41.24, 27.51 42.77 C22.97 44.3, 16.59 44.15, 12.25 42.41 C7.91 40.66, 3.58 36.74, 1.47 32.29 C-0.64 27.84, -1.44 20.48, -0.43 15.7 C0.57 10.92, 3.82 6.19, 7.52 3.6 C11.23 1.01, 19.39 0.53, 21.8 0.18 C24.2 -0.16, 21.75 1.09, 21.95 1.53" stroke="none" stroke-width="0" fill="#04aaf7"></path><path d="M19.9 -0.25 C24.34 -0.63, 31.07 1.63, 34.83 4.49 C38.58 7.35, 41.46 12.63, 42.44 16.93 C43.43 21.23, 42.98 26.16, 40.73 30.31 C38.49 34.45, 33.12 39.98, 28.97 41.78 C24.82 43.59, 20.06 42.69, 15.84 41.12 C11.61 39.56, 6.34 35.97, 3.62 32.39 C0.9 28.81, -1.14 23.95, -0.49 19.65 C0.16 15.34, 3.69 9.71, 7.53 6.57 C11.37 3.42, 19.57 1.69, 22.53 0.77 C25.5 -0.15, 25.31 0.71, 25.33 1.06 M13.5 2.76 C17.6 0.74, 24.06 0.41, 28.61 1.65 C33.16 2.89, 38.33 6.55, 40.78 10.19 C43.24 13.83, 44.41 19.06, 43.33 23.5 C42.24 27.94, 37.77 33.51, 34.26 36.82 C30.75 40.13, 26.4 43.18, 22.27 43.36 C18.14 43.53, 13.23 40.99, 9.46 37.87 C5.69 34.76, 0.63 29.09, -0.35 24.67 C-1.34 20.24, 1.44 15.31, 3.56 11.33 C5.69 7.35, 10.82 2.37, 12.4 0.8 C13.98 -0.76, 12.52 1.28, 13.03 1.95" stroke="#000000" stroke-width="1" fill="none"></path></g><g stroke-linecap="round"><g transform="translate(80.70684728308902 71.58763780358254) rotate(0 -3.4640896553595724 6.480451691366937)" fill-rule="evenodd"><path d="M0 0 L-1.83 -0.41 L-7.57 -6.27 L-9.75 -6.1 L-11.36 -4.35 L-12.61 2.37 L-11.27 6.74 L-17.42 8.89 L-18 11.42 L-17.2 13.64 L-15.01 14.04 L-12.38 13.35 L-8.7 9.48 L-3.62 17.87 L-1.49 19.38 L-0.42 18.17 L-3.78 4.8 L-1.52 3.64 L1.39 4.35 L3.16 5.87 L6.21 6.29 L9.24 5.87 L10.81 3.22 L10.8 0.63 L4.22 1.11 L5.49 -5.76 L4.23 -6.26 L2.47 -5.35 L-0.24 -0.92 L0 0" stroke="none" stroke-width="0" fill="#40c057" fill-rule="evenodd"></path><path d="M0 0 C-0.31 -0.07, -0.57 0.63, -1.83 -0.41 C-3.09 -1.46, -5.98 -5.62, -7.57 -6.27 C-9.16 -6.93, -10.52 -5.79, -11.36 -4.35 C-12.2 -2.91, -12.63 0.53, -12.61 2.37 C-12.6 4.22, -10.47 5.65, -11.27 6.74 C-12.07 7.83, -16.44 7.74, -17.42 8.89 C-18.41 10.04, -18.04 12.9, -17.2 13.64 C-16.36 14.39, -13.8 14.04, -12.38 13.35 C-10.96 12.66, -10.16 8.72, -8.7 9.48 C-7.24 10.23, -5 16.42, -3.62 17.87 C-2.24 19.32, -0.39 20.35, -0.42 18.17 C-0.44 15.99, -4.08 7.1, -3.78 4.8 C-3.48 2.5, 0.23 4.17, 1.39 4.35 C2.54 4.53, 1.85 5.61, 3.16 5.87 C4.47 6.12, 7.96 6.74, 9.24 5.87 C10.51 5, 11.64 1.43, 10.8 0.63 C9.97 -0.16, 5.11 2.18, 4.22 1.11 C3.34 0.04, 5.78 -4.68, 5.49 -5.76 C5.19 -6.84, 3.43 -6.15, 2.47 -5.35 C1.52 -4.54, 0.17 -1.81, -0.24 -0.92 C-0.65 -0.03, -0.04 -0.15, 0 0 M0 0 C-0.31 -0.07, -0.57 0.63, -1.83 -0.41 C-3.09 -1.46, -5.98 -5.62, -7.57 -6.27 C-9.16 -6.93, -10.52 -5.79, -11.36 -4.35 C-12.2 -2.91, -12.63 0.53, -12.61 2.37 C-12.6 4.22, -10.47 5.65, -11.27 6.74 C-12.07 7.83, -16.44 7.74, -17.42 8.89 C-18.41 10.04, -18.04 12.9, -17.2 13.64 C-16.36 14.39, -13.8 14.04, -12.38 13.35 C-10.96 12.66, -10.16 8.72, -8.7 9.48 C-7.24 10.23, -5 16.42, -3.62 17.87 C-2.24 19.32, -0.39 20.35, -0.42 18.17 C-0.44 15.99, -4.08 7.1, -3.78 4.8 C-3.48 2.5, 0.23 4.17, 1.39 4.35 C2.54 4.53, 1.85 5.61, 3.16 5.87 C4.47 6.12, 7.96 6.74, 9.24 5.87 C10.51 5, 11.64 1.43, 10.8 0.63 C9.97 -0.16, 5.11 2.18, 4.22 1.11 C3.34 0.04, 5.78 -4.68, 5.49 -5.76 C5.19 -6.84, 3.43 -6.15, 2.47 -5.35 C1.52 -4.54, 0.17 -1.81, -0.24 -0.92 C-0.65 -0.03, -0.04 -0.15, 0 0" stroke="#087f5b" stroke-width="1" fill="none"></path></g></g><g stroke-linecap="round"><g stroke-opacity="0.9" fill-opacity="0.9" transform="translate(54.68774569514096 76.32615930230594) rotate(0 20.99001209539864 0.1471353103872275)"><path d="M-0.15 0.06 C6.68 0.11, 34.36 -0.33, 41.34 -0.18 M-1.68 -0.96 C5.49 -0.67, 36.58 1.25, 43.66 1.26" stroke="#000000" stroke-width="1" fill="none"></path></g></g><g stroke-linecap="round"><g stroke-opacity="0.9" fill-opacity="0.9" transform="translate(59.78307472491531 60.89163037533979) rotate(0 14.659303301924297 2.6276150615775293)"><path d="M0 0 C0.13 0.38, 0.09 1.58, 0.77 2.28 C1.46 2.97, 2.81 3.68, 4.1 4.19 C5.4 4.7, 6.64 5.13, 8.54 5.34 C10.43 5.55, 12.97 5.55, 15.48 5.45 C17.99 5.34, 21.44 5.28, 23.58 4.71 C25.72 4.14, 27.36 2.86, 28.32 2.03 C29.27 1.2, 29.15 0.12, 29.32 -0.26 M0 0 C0.13 0.38, 0.09 1.58, 0.77 2.28 C1.46 2.97, 2.81 3.68, 4.1 4.19 C5.4 4.7, 6.64 5.13, 8.54 5.34 C10.43 5.55, 12.97 5.55, 15.48 5.45 C17.99 5.34, 21.44 5.28, 23.58 4.71 C25.72 4.14, 27.36 2.86, 28.32 2.03 C29.27 1.2, 29.15 0.12, 29.32 -0.26" stroke="#000000" stroke-width="1" fill="none"></path></g></g><g stroke-opacity="0.9" fill-opacity="0.9" stroke-linecap="round" transform="translate(67.85699064883477 53.98075610953225) rotate(0 7.7642171765580485 22.41115194065472)"><path d="M6.97 0.78 C8.43 -0.3, 10.9 0.2, 12.11 2.78 C13.32 5.35, 13.66 11.7, 14.23 16.24 C14.8 20.78, 15.97 25.82, 15.52 30.01 C15.06 34.2, 13.17 38.89, 11.51 41.4 C9.84 43.91, 7.04 45.79, 5.55 45.06 C4.05 44.32, 3.42 40.74, 2.54 36.97 C1.65 33.21, 0.19 27.31, 0.25 22.46 C0.3 17.61, 1.59 11.5, 2.86 7.88 C4.12 4.26, 7.06 2.01, 7.81 0.74 C8.56 -0.53, 7.27 -0.03, 7.35 0.25 M12.06 1.9 C13.57 3.13, 15.12 7.08, 15.43 11.22 C15.73 15.37, 14.35 21.87, 13.87 26.79 C13.4 31.71, 13.45 37.82, 12.57 40.76 C11.7 43.7, 10.44 44.91, 8.63 44.42 C6.82 43.92, 2.95 40.95, 1.71 37.78 C0.47 34.6, 1.42 30.05, 1.19 25.37 C0.96 20.69, -0.29 13.75, 0.34 9.69 C0.98 5.64, 3.04 2.17, 5.01 1.04 C6.97 -0.09, 10.98 2.94, 12.13 2.93 C13.27 2.91, 12.38 0.67, 11.89 0.95" stroke="#000000" stroke-width="1" fill="none"></path></g><g stroke-linecap="round"><g stroke-opacity="0.9" fill-opacity="0.9" transform="translate(61.2990262345412 92.6287224337807) rotate(0 14.659303301924297 -2.712666309810544)"><path d="M0 0 C0.68 -0.72, 2.68 -3.4, 4.1 -4.32 C5.53 -5.24, 6.64 -5.3, 8.54 -5.52 C10.43 -5.73, 12.97 -5.73, 15.48 -5.63 C17.99 -5.52, 21.44 -5.45, 23.58 -4.86 C25.72 -4.28, 27.36 -2.95, 28.32 -2.1 C29.27 -1.24, 29.15 -0.12, 29.32 0.27 M0 0 C0.68 -0.72, 2.68 -3.4, 4.1 -4.32 C5.53 -5.24, 6.64 -5.3, 8.54 -5.52 C10.43 -5.73, 12.97 -5.73, 15.48 -5.63 C17.99 -5.52, 21.44 -5.45, 23.58 -4.86 C25.72 -4.28, 27.36 -2.95, 28.32 -2.1 C29.27 -1.24, 29.15 -0.12, 29.32 0.27" stroke="#000000" stroke-width="1" fill="none"></path></g></g><g transform="translate(21.255879688592756 122.57142857142856) rotate(0 46.00000000000003 13)"><text x="0" y="18" font-family="Virgil, Segoe UI Emoji" font-size="20px" fill="#000000" text-anchor="start" style="white-space: pre;" direction="ltr">whatsapp</text></g><g stroke-linecap="round" transform="translate(280.2558796885928 10) rotate(0 74.5 60.5)"><path d="M-1.25 -1.08 C52.78 2.25, 105.06 -0.4, 147.39 -0.07 M-0.52 -0.43 C31.29 -1.62, 63.58 -1.51, 148.78 0.72 M148.2 -0.99 C151.4 39.77, 149.95 74.28, 150.6 120.3 M149.94 0.93 C149.42 32.78, 150.19 64.33, 148.47 120.38 M149.32 122.18 C109.05 121.46, 70.17 118.91, 0.37 122.81 M149.11 120.05 C95.51 121.58, 43.79 121.61, 0.79 120.77 M0.43 121.92 C0.69 89.56, -1.33 59.67, -1.2 1.66 M0.51 120.35 C-1.45 94.2, -1.21 68.66, -0.88 -0.78" stroke="#000000" stroke-width="1" fill="none"></path></g><g transform="translate(285.2558796885928 57.5) rotate(0 69.5 13)"><text x="69.5" y="18" font-family="Virgil, Segoe UI Emoji" font-size="20px" fill="#000000" text-anchor="middle" style="white-space: pre;" direction="ltr">GEC Bot</text></g><g stroke-linecap="round"><g transform="translate(265.2558796885928 80.70303294058033) rotate(0 -59.61981053096912 -4.728701024023337)"><path d="M0.42 -0.02 C-19.57 -1.42, -99.8 -7.79, -119.66 -9.44 M-0.82 -1.08 C-20.46 -2.18, -97.66 -6.62, -117.44 -7.92" stroke="#000000" stroke-width="1" fill="none"></path></g><g transform="translate(265.2558796885928 80.70303294058033) rotate(0 -59.61981053096912 -4.728701024023337)"><path d="M-88.71 -18.02 C-98.02 -13.63, -108.01 -9.65, -116.82 -7.42 M-88.31 -17.22 C-98.09 -13.43, -107.84 -11, -117.75 -8.52" stroke="#000000" stroke-width="1" fill="none"></path></g><g transform="translate(265.2558796885928 80.70303294058033) rotate(0 -59.61981053096912 -4.728701024023337)"><path d="M-89.96 2.47 C-98.69 0.3, -108.28 -2.28, -116.82 -7.42 M-89.56 3.26 C-98.89 0.48, -108.25 -3.68, -117.75 -8.52" stroke="#000000" stroke-width="1" fill="none"></path></g></g><g stroke-linecap="round"><g transform="translate(336.93093865156845 246.68380272382933) rotate(0 26.697370220821256 29.27216467666929)" fill-rule="evenodd"><path d="M-1.49 1.58 L2.68 61.67 L11.86 62.72 L30.55 65.38 L42.57 61.61 L55.09 57.95 L54.25 -1.7 L49.06 -2.7 L24.93 -4.38 L6.75 -2.43 L-1.89 1.34" stroke="none" stroke-width="0" fill="#228be6" fill-rule="evenodd"></path><path d="M-0.87 -1.18 C-1.09 7.6, -0.6 42.21, -0.27 52.14 C0.06 62.07, 0.42 56.97, 1.09 58.39 C1.75 59.81, 1.78 59.59, 3.71 60.63 C5.64 61.67, 8.53 63.92, 12.65 64.61 C16.78 65.3, 23.1 65.04, 28.46 64.78 C33.82 64.51, 40.85 63.72, 44.81 63.03 C48.77 62.34, 50.64 61.35, 52.23 60.63 C53.82 59.91, 54.18 59.91, 54.34 58.72 C54.5 57.52, 53.43 62.54, 53.17 53.47 C52.92 44.41, 52.87 13.28, 52.82 4.34 C52.77 -4.59, 53.14 0.9, 52.88 -0.13 C52.63 -1.16, 52.9 -1.25, 51.29 -1.84 C49.68 -2.43, 47.35 -2.87, 43.21 -3.65 C39.06 -4.42, 31.46 -6.25, 26.43 -6.48 C21.4 -6.7, 16.86 -5.67, 13.02 -5.01 C9.17 -4.34, 5.38 -3.45, 3.38 -2.49 C1.37 -1.54, 1.4 0.44, 0.99 0.72 C0.57 0.99, 1.05 -0.69, 0.88 -0.84 M0.87 0.81 C0.36 9.79, -1.46 43.57, -1.45 53.35 C-1.45 63.13, -0.1 58.18, 0.89 59.51 C1.87 60.84, 2.71 60.95, 4.45 61.35 C6.18 61.75, 7.07 61.45, 11.28 61.9 C15.49 62.34, 23.97 64.06, 29.7 64.02 C35.42 63.97, 42.11 62.24, 45.65 61.63 C49.19 61.01, 49.73 61.02, 50.94 60.34 C52.15 59.66, 52.48 58.76, 52.9 57.53 C53.32 56.31, 53.53 61.71, 53.47 53.01 C53.42 44.3, 52.35 14.2, 52.56 5.28 C52.77 -3.64, 55.42 0.73, 54.74 -0.51 C54.05 -1.75, 50.46 -1.66, 48.45 -2.16 C46.44 -2.66, 46.28 -3.21, 42.69 -3.5 C39.09 -3.78, 31.65 -3.79, 26.89 -3.85 C22.13 -3.91, 18.19 -4.19, 14.15 -3.86 C10.12 -3.53, 5 -2.76, 2.68 -1.87 C0.36 -0.98, 0.69 1.34, 0.24 1.48 C-0.22 1.62, -0.08 -1.04, -0.04 -1.02" stroke="#0a11d3" stroke-width="1" fill="none"></path></g></g><g stroke-linecap="round"><g transform="translate(337.3523853736747 286.7155863802129) rotate(0 26.528069636936834 2.674193431446213)"><path d="M-1.18 -0.45 C-0.95 0.28, -0.59 2.51, 0.8 3.47 C2.2 4.44, 4.83 4.94, 7.2 5.33 C9.57 5.72, 11.29 5.8, 15.03 5.81 C18.77 5.82, 24.8 5.47, 29.64 5.39 C34.48 5.31, 40.33 5.96, 44.09 5.34 C47.84 4.71, 50.48 2.5, 52.18 1.64 C53.87 0.78, 53.85 0.64, 54.24 0.17 M0.4 -1.73 C1.07 -1.24, 2.22 1.05, 3.19 1.92 C4.16 2.78, 4.28 2.62, 6.23 3.47 C8.19 4.32, 11.15 6.66, 14.89 7.02 C18.64 7.37, 24.18 6.02, 28.72 5.6 C33.26 5.18, 38.11 4.82, 42.12 4.5 C46.12 4.18, 50.9 4.43, 52.76 3.69 C54.61 2.95, 53.21 0.57, 53.26 0.06" stroke="#0a11d3" stroke-width="1" fill="none"></path></g></g><g stroke-linecap="round"><g transform="translate(336.6817721445782 266.43660332442374) rotate(0 27.07070351612151 3.1594818644719567)"><path d="M-0.45 -0.62 C0.11 -0.09, 1.01 1.3, 2.5 2.02 C4 2.73, 6.26 2.89, 8.5 3.67 C10.75 4.45, 12.67 6.24, 15.96 6.67 C19.25 7.1, 23.58 6.57, 28.25 6.26 C32.91 5.96, 40.01 5.51, 43.93 4.84 C47.86 4.17, 50.02 3.02, 51.8 2.23 C53.57 1.44, 54.35 0.53, 54.59 0.1 M1.52 1.67 C2.09 2.47, 1 2.86, 2.12 3.35 C3.24 3.84, 5.86 4.38, 8.23 4.6 C10.59 4.82, 12.63 4.28, 16.31 4.67 C19.98 5.06, 25.99 7.09, 30.26 6.93 C34.52 6.78, 38.23 4.73, 41.89 3.73 C45.54 2.74, 50.19 1.56, 52.18 0.93 C54.16 0.3, 53.36 0.4, 53.8 -0.04" stroke="#0a11d3" stroke-width="1" fill="none"></path></g></g><g stroke-linecap="round" transform="translate(335.9945544496085 241.76356572996332) rotate(0 26.870951331900983 5.434447748409468)"><path d="M34.92 0.65 C40.34 0.85, 47.85 1.04, 50.84 2.06 C53.84 3.07, 53.93 5.53, 52.9 6.73 C51.87 7.93, 49.02 8.55, 44.66 9.23 C40.3 9.92, 32.63 10.75, 26.75 10.83 C20.87 10.9, 13.65 10.38, 9.36 9.69 C5.06 9.01, 2.02 7.87, 0.99 6.71 C-0.05 5.55, 0.51 3.62, 3.15 2.71 C5.79 1.8, 11.24 1.8, 16.82 1.25 C22.4 0.7, 33.3 -0.43, 36.62 -0.59 C39.94 -0.76, 36.82 0.12, 36.75 0.24 M27.94 0.51 C33.27 0.55, 39.98 1.09, 44.23 1.79 C48.47 2.49, 52.27 3.72, 53.42 4.71 C54.58 5.7, 54.08 6.93, 51.16 7.7 C48.23 8.48, 41.66 8.98, 35.86 9.35 C30.06 9.72, 21.49 9.87, 16.35 9.92 C11.21 9.98, 7.56 10.73, 5 9.66 C2.43 8.6, 0.07 4.74, 0.96 3.53 C1.85 2.33, 6.05 2.99, 10.34 2.44 C14.63 1.88, 23.91 0.7, 26.7 0.19 C29.48 -0.31, 27.2 -0.86, 27.04 -0.6" stroke="none" stroke-width="0" fill="#fff"></path><path d="M22.81 0.94 C27.98 0.88, 35.44 0.78, 40.41 1.22 C45.37 1.65, 50.73 2.52, 52.59 3.56 C54.45 4.6, 53.6 6.3, 51.55 7.45 C49.5 8.61, 45.37 9.95, 40.29 10.5 C35.2 11.05, 26.89 11.03, 21.03 10.74 C15.16 10.46, 8.69 9.68, 5.08 8.79 C1.47 7.9, -1.03 6.43, -0.63 5.41 C-0.22 4.4, 2.77 3.49, 7.51 2.67 C12.25 1.86, 23.66 1.08, 27.82 0.55 C31.98 0.01, 32.51 -0.51, 32.47 -0.54 M39.34 1.63 C44.3 1.83, 48.05 2.46, 50.26 3.15 C52.46 3.84, 53.7 4.4, 52.55 5.76 C51.39 7.13, 47.84 10.56, 43.31 11.33 C38.78 12.11, 31.4 10.52, 25.36 10.4 C19.33 10.27, 11.18 11.55, 7.11 10.56 C3.04 9.58, 1.48 5.7, 0.94 4.48 C0.39 3.26, 0.83 3.92, 3.81 3.24 C6.8 2.55, 13.22 0.61, 18.87 0.37 C24.53 0.13, 34.39 1.93, 37.72 1.82 C41.05 1.7, 38.8 -0.17, 38.87 -0.32" stroke="#0a11d3" stroke-width="1" fill="none"></path></g><g stroke-linecap="round" transform="translate(379.8398066971283 256.83189617488785) rotate(0 3.9381954979454576 4.274147685321196)"><path d="M4.24 0.88 C4.94 0.87, 5.17 0, 5.84 0.48 C6.5 0.95, 8.03 2.84, 8.23 3.74 C8.43 4.65, 7.54 5.23, 7.05 5.91 C6.56 6.58, 6.01 7.28, 5.28 7.77 C4.56 8.25, 3.43 9.09, 2.68 8.82 C1.94 8.56, 1.26 7.14, 0.81 6.17 C0.37 5.21, -0.26 3.93, -0.01 3.04 C0.23 2.15, 1.7 1.5, 2.27 0.85 C2.85 0.2, 3.04 -0.82, 3.42 -0.85 C3.79 -0.89, 4.51 0.4, 4.54 0.62 M5.68 0.38 C6.58 0.42, 7.42 1.22, 7.82 2.14 C8.22 3.05, 8.36 5.01, 8.08 5.85 C7.79 6.69, 7 6.95, 6.13 7.16 C5.26 7.37, 3.75 6.81, 2.87 7.12 C2 7.42, 1.09 9.21, 0.87 8.97 C0.66 8.74, 1.81 6.7, 1.58 5.71 C1.35 4.73, -0.85 3.98, -0.51 3.07 C-0.17 2.15, 2.65 0.66, 3.63 0.23 C4.61 -0.2, 5.23 0.65, 5.37 0.49 C5.5 0.33, 4.29 -0.61, 4.44 -0.72" stroke="none" stroke-width="0" fill="#fff"></path><path d="M6.3 0.03 C7.23 0.33, 7.63 1.8, 7.86 2.59 C8.09 3.38, 7.93 3.85, 7.69 4.76 C7.45 5.66, 7.03 7.51, 6.43 8.02 C5.84 8.53, 4.97 8.06, 4.11 7.81 C3.25 7.56, 1.96 7.12, 1.27 6.52 C0.58 5.92, 0.07 4.83, -0.03 4.23 C-0.13 3.63, 0.08 3.56, 0.67 2.94 C1.27 2.32, 2.57 0.86, 3.53 0.5 C4.49 0.14, 6.12 0.67, 6.46 0.78 C6.79 0.89, 5.71 0.96, 5.56 1.13 M4.66 -1.03 C5.23 -1.36, 5.81 -0.37, 6.14 0.52 C6.46 1.4, 6.15 3.22, 6.61 4.31 C7.08 5.4, 9.19 6.53, 8.95 7.06 C8.71 7.59, 5.97 7.13, 5.19 7.5 C4.41 7.87, 5.25 9.58, 4.27 9.26 C3.3 8.95, -0.1 6.7, -0.65 5.61 C-1.2 4.52, 0.64 3.56, 0.96 2.72 C1.29 1.89, 0.67 0.94, 1.32 0.61 C1.96 0.27, 4.63 0.66, 4.85 0.72 C5.06 0.78, 2.84 0.89, 2.62 0.99" stroke="#0a11d3" stroke-width="1" fill="none"></path></g><g stroke-linecap="round" transform="translate(379.8398066971283 275.5953884391807) rotate(0 3.9381954979454576 4.274147685321196)"><path d="M4.84 -0.6 C5.7 -0.64, 5.46 0.8, 6 1.44 C6.54 2.08, 7.93 2.42, 8.08 3.25 C8.22 4.07, 7.42 5.55, 6.87 6.4 C6.31 7.25, 5.38 7.99, 4.75 8.35 C4.12 8.71, 3.83 8.88, 3.08 8.54 C2.33 8.21, 0.83 7.01, 0.23 6.32 C-0.36 5.63, -0.64 5.45, -0.47 4.4 C-0.31 3.35, 0.54 0.78, 1.25 0 C1.95 -0.78, 3.02 -0.19, 3.76 -0.26 C4.5 -0.33, 5.54 -0.65, 5.68 -0.42 M3.87 0.54 C4.49 0.39, 5.58 0.7, 6.4 1.08 C7.21 1.47, 8.6 2.2, 8.73 2.85 C8.86 3.51, 7.94 4.22, 7.16 5.01 C6.38 5.79, 4.57 6.76, 4.07 7.57 C3.57 8.38, 4.63 10.19, 4.16 9.86 C3.68 9.54, 1.77 6.47, 1.22 5.65 C0.67 4.82, 0.85 5.65, 0.84 4.93 C0.83 4.22, 0.64 2.3, 1.16 1.36 C1.68 0.42, 3.72 -0.69, 3.98 -0.7 C4.23 -0.71, 2.86 1.11, 2.69 1.31" stroke="none" stroke-width="0" fill="#fff"></path><path d="M2.47 0.64 C3.24 0.16, 5 -0.06, 5.76 0.23 C6.52 0.52, 6.62 1.5, 7.02 2.38 C7.41 3.26, 8.39 4.64, 8.15 5.51 C7.92 6.39, 6.48 7.15, 5.6 7.64 C4.71 8.13, 3.67 8.5, 2.84 8.47 C2.02 8.45, 0.96 7.97, 0.65 7.5 C0.34 7.02, 0.93 6.46, 0.97 5.63 C1.01 4.81, 0.46 3.59, 0.91 2.52 C1.36 1.46, 3.11 -0.3, 3.69 -0.73 C4.27 -1.16, 4.27 -0.23, 4.39 -0.07 M4.51 0.35 C5.06 0.29, 6.52 0.24, 7.25 1.3 C7.99 2.37, 8.94 5.75, 8.94 6.75 C8.94 7.75, 8.25 6.78, 7.26 7.29 C6.27 7.81, 3.89 10.07, 3.02 9.85 C2.15 9.62, 2.73 6.64, 2.04 5.95 C1.35 5.25, -0.7 6.3, -1.13 5.65 C-1.56 5.01, -1.1 2.76, -0.54 2.06 C0.01 1.36, 1.06 1.89, 2.19 1.45 C3.33 1.02, 5.55 -0.38, 6.26 -0.56 C6.96 -0.75, 6.41 0.37, 6.41 0.36" stroke="#0a11d3" stroke-width="1" fill="none"></path></g><g stroke-linecap="round" transform="translate(379.8398066971283 295.9888114116026) rotate(0 3.9381954979454576 4.274147685321196)"><path d="M1.77 -0.14 C2.5 -0.64, 4.63 0.17, 5.48 0.43 C6.34 0.7, 6.52 0.82, 6.91 1.45 C7.29 2.09, 7.84 3.18, 7.81 4.26 C7.77 5.33, 7.26 7.23, 6.7 7.89 C6.13 8.56, 5.3 8.38, 4.44 8.26 C3.58 8.14, 2.1 7.7, 1.53 7.17 C0.95 6.64, 1.36 6.03, 1.01 5.09 C0.66 4.14, -0.82 2.23, -0.56 1.48 C-0.3 0.73, 2.02 0.79, 2.56 0.57 C3.1 0.34, 2.5 0.13, 2.68 0.11 M5.97 0.43 C6.69 0.85, 7.44 2.51, 7.67 3.26 C7.9 4, 7.77 4.39, 7.36 4.89 C6.94 5.39, 5.86 5.4, 5.16 6.23 C4.46 7.06, 3.55 9.59, 3.15 9.89 C2.75 10.18, 3.46 8.71, 2.78 8 C2.09 7.3, -0.78 6.67, -0.95 5.66 C-1.11 4.64, 1.12 2.78, 1.76 1.91 C2.41 1.05, 2.44 0.91, 2.94 0.47 C3.43 0.04, 4.12 -0.55, 4.73 -0.69 C5.35 -0.83, 6.52 -0.68, 6.62 -0.37" stroke="none" stroke-width="0" fill="#fff"></path><path d="M4.7 0.33 C5.34 0.32, 6.07 0.16, 6.6 0.82 C7.14 1.47, 7.79 3.39, 7.94 4.24 C8.08 5.1, 7.99 5.42, 7.49 5.96 C7 6.5, 5.84 7.21, 4.96 7.47 C4.08 7.73, 2.98 7.6, 2.23 7.53 C1.48 7.46, 0.67 7.72, 0.45 7.04 C0.23 6.37, 0.64 4.5, 0.93 3.49 C1.22 2.48, 1.72 1.54, 2.2 0.99 C2.69 0.45, 3.42 0.2, 3.85 0.22 C4.28 0.24, 4.7 0.93, 4.78 1.12 M5.13 -0.02 C5.53 0.56, 5.47 2.2, 6.16 3.19 C6.85 4.17, 9.27 5.28, 9.26 5.89 C9.26 6.49, 6.77 6.23, 6.13 6.82 C5.48 7.4, 6.39 9.45, 5.39 9.39 C4.39 9.34, 0.85 7.4, 0.13 6.49 C-0.6 5.58, 0.95 4.76, 1.04 3.94 C1.13 3.13, 0.2 2.08, 0.65 1.6 C1.1 1.11, 3.16 1.1, 3.75 1.01 C4.34 0.93, 4 1.07, 4.21 1.1 C4.42 1.13, 5.13 1.1, 5.03 1.19" stroke="#0a11d3" stroke-width="1" fill="none"></path></g><g stroke-linecap="round"><g transform="translate(359.2558796885928 149) rotate(0 -1.4004019201873348 43.23943353197538)"><path d="M-0.22 0.13 C-0.69 14.53, -1.63 71.6, -2.11 86.21 M-1.79 -0.85 C-2.4 13.7, -2.24 72.88, -2.59 87.33" stroke="#000000" stroke-width="1" fill="none"></path></g><g transform="translate(359.2558796885928 149) rotate(0 -1.4004019201873348 43.23943353197538)"><path d="M-12.38 60.54 C-10.34 69.19, -4.12 80.58, -0.86 86.61 M-11.79 58.89 C-9.9 65.22, -8.89 70.06, -3.24 87.95" stroke="#000000" stroke-width="1" fill="none"></path></g><g transform="translate(359.2558796885928 149) rotate(0 -1.4004019201873348 43.23943353197538)"><path d="M8.14 60.72 C2.77 69.27, 1.6 80.6, -0.86 86.61 M8.73 59.08 C6.39 65.17, 3.18 69.97, -3.24 87.95" stroke="#000000" stroke-width="1" fill="none"></path></g></g><g transform="translate(310.2558796885928 320) rotate(0 55 13)"><text x="0" y="18" font-family="Virgil, Segoe UI Emoji" font-size="20px" fill="#000000" text-anchor="start" style="white-space: pre;" direction="ltr">local sqlite</text></g><g stroke-linecap="round"><g transform="translate(689.5620606781567 11.05019201370419) rotate(89.99999999999994 26.363882006205017 64.09486108034578)" fill-rule="evenodd"><path d="M2.08 -4.82 C2.08 -4.82, 2.08 -4.82, 2.08 -4.82 M2.08 -4.82 C2.08 -4.82, 2.08 -4.82, 2.08 -4.82 M2.17 1.16 C4.22 -2.03, 9.29 -5.85, 11.55 -11.05 M2.02 1.02 C6.14 -3.21, 8.38 -6.5, 11.99 -10.9 M1.27 7.69 C4.23 1.42, 12.96 -4.43, 18.28 -10.71 M0.77 8.86 C4.58 3.29, 9.59 -1.31, 19.33 -11.08 M0.78 14.83 C11.43 4.7, 16.15 -2.87, 24.1 -12.13 M1.93 12.96 C9.33 5.44, 15.08 -0.91, 23.31 -11.71 M3.39 19.99 C8.13 11.85, 17.23 2.41, 27.14 -10.15 M1.25 19.86 C6.53 13.61, 12.49 7.07, 28.92 -9.34 M1.28 26.22 C6.76 19.99, 16.05 11.22, 31.62 -10.47 M2.8 25.7 C7.95 18.94, 14.29 11.01, 31.44 -8.98 M2 33.09 C10.3 24.63, 16.84 15.82, 35.44 -8.47 M2.27 31.64 C9.14 23.53, 17.29 14.75, 35.61 -8.38 M0.66 39.7 C14.1 25.34, 23.83 13.69, 41.79 -9.52 M2.77 37.3 C18.26 20.94, 32.64 2.58, 40.78 -7.8 M1.75 43.7 C17.51 29.06, 28.55 14.06, 47.53 -8.95 M2.05 44.29 C15.1 28.97, 29.66 11.98, 46.74 -7.51 M3.31 48.25 C14.41 32.69, 29.07 16.87, 49.51 -2.29 M2.23 49.69 C15.97 33.24, 30.76 17.59, 49.56 -3.55 M2.77 57.06 C16.27 36.93, 32.53 20.76, 51.43 -1.32 M3.09 55.61 C20.35 33.92, 39.18 14.12, 52 -1.25 M52.61 -1.97 C52.61 -1.97, 52.61 -1.97, 52.61 -1.97 M52.61 -1.97 C52.61 -1.97, 52.61 -1.97, 52.61 -1.97 M1 60.49 C15.67 48.07, 28.15 33.58, 52.13 4.76 M2.37 60.8 C13.06 48.68, 24.33 36.68, 52.87 5.21 M1.13 67.33 C18.9 51.34, 30.47 34.25, 53.99 10.86 M1.89 67.81 C16.82 52.79, 30.36 36.15, 52.94 10.55 M2.39 73.78 C19.74 52.97, 36.35 36.05, 51.25 16.51 M1.72 74.73 C16.05 60.5, 28.41 43.11, 52.18 16.83 M2.99 79.94 C19.61 60.43, 34.12 42.63, 52.88 22.84 M2.46 79.81 C20.18 60.67, 37.65 40.32, 52.1 21.93 M3.16 87.73 C14.77 72.73, 29.28 58.03, 53.45 28.52 M1.95 86.56 C15.96 68.31, 31.26 52.8, 52.57 29.17 M0.71 92.54 C15.71 76.52, 31.31 59.53, 50.87 36.76 M2.46 91.92 C22.6 68.61, 42.29 46.51, 53.12 34.89 M0.81 98.33 C17.94 81.82, 29.8 66.13, 53.99 43.02 M1.88 97.87 C15.51 83.23, 29.79 69.04, 51.99 40.66 M4.2 104.59 C12.51 89.48, 27.54 77.93, 51.61 46.33 M3.5 104.83 C20.62 84.55, 36.43 63.44, 52.72 47.02 M0.98 109.32 C20.77 91.75, 36.56 73.36, 53.56 52.48 M3.25 111.23 C16.71 92.92, 31.4 77.02, 52.61 53.26 M2.85 116.06 C18.5 97.13, 36.73 77.29, 54.24 57.78 M3.46 116.98 C19.6 98.26, 35.81 79.65, 51.89 59.64 M0.84 120.9 C21.47 100.47, 35.67 82.29, 50.41 64.12 M2.06 122.98 C17.65 105.52, 33.74 86.05, 52.9 64.92 M0.91 128.2 C19.04 111.93, 34.96 93.22, 52.75 70.61 M1.77 129.34 C13.42 116.08, 25.43 103.11, 51.22 72.58 M1.01 133.82 C15.91 118.69, 28.32 102.56, 50.94 76.92 M2.54 135.18 C23.12 111.76, 42.09 87.76, 52.21 76.59 M7.36 136.69 C21.51 117.65, 40.32 97.66, 50.62 82.52 M5.41 136.57 C20.7 120.88, 34.69 102.04, 51.51 83.15 M7.56 138.51 C20.62 122.92, 37.72 106.92, 53.04 90.37 M9.09 140.87 C26.09 120.12, 44.35 99.1, 52.16 88.96 M14.11 143.01 C25.77 130.14, 34.64 117.89, 52.82 93.99 M12.99 140.37 C22.18 129.62, 33.51 118.83, 51.83 96.69 M16.85 140.46 C27.12 133.27, 34.74 121.3, 53.47 101.18 M17.16 141.39 C29.85 129.46, 41.66 114.61, 51.95 103.24 M21.92 144.15 C28.96 135.84, 37.5 124.24, 52.5 109.26 M20.73 143.2 C29.22 133.92, 36.79 125.88, 52.18 107.51 M27.39 142.65 C37.81 131.23, 45.77 121.89, 50.43 112.34 M27.08 142.82 C34.56 135.84, 39.06 129.01, 53.01 114.12 M32.33 139.58 C42.93 132.8, 49.93 125.86, 54.33 121.04 M34.39 141.26 C38.84 135.25, 43.67 128.87, 52.8 119.69 M41.08 140.58 C44.04 136.56, 47.9 132.12, 51.69 125.6 M39.46 140.98 C44.12 136.4, 46.87 132.51, 53.02 126.31 M45.54 139.66 C46.9 137.08, 49.66 133.29, 55.24 129.49 M45.26 140.5 C48.24 136.99, 51.62 134.37, 53.66 129.83" stroke="#40c057" stroke-width="0.5" fill="none"></path><path d="M0.7 -1.02 C0.84 18.51, 1.28 95.31, 1.14 117.24 C1 139.18, -0.25 127.54, -0.14 130.58 C-0.03 133.63, -0.32 134.03, 1.79 135.53 C3.91 137.03, 8.13 138.51, 12.55 139.58 C16.97 140.66, 23.42 141.83, 28.31 141.99 C33.21 142.16, 38.31 141.91, 41.94 140.57 C45.57 139.24, 48.55 135.8, 50.09 133.97 C51.64 132.15, 51.01 132.35, 51.21 129.62 C51.41 126.9, 51.1 137.73, 51.29 117.62 C51.47 97.51, 52.27 28.5, 52.31 8.97 C52.35 -10.56, 52.25 2.92, 51.51 0.43 C50.78 -2.07, 49.46 -4.52, 47.91 -6 C46.36 -7.47, 46.13 -7.28, 42.22 -8.44 C38.31 -9.6, 29.42 -12.62, 24.46 -12.95 C19.51 -13.29, 16.25 -11.68, 12.48 -10.47 C8.71 -9.25, 3.87 -7.5, 1.84 -5.64 C-0.19 -3.78, 0.79 -0.28, 0.3 0.69 C-0.19 1.66, -1.01 0.25, -1.1 0.18 M-0.4 1.05 C-0.35 20.21, 0.8 94.1, 0.7 115.34 C0.6 136.58, -1.13 124.97, -0.99 128.49 C-0.84 132.01, -0.49 134.64, 1.57 136.46 C3.62 138.27, 7.22 138.65, 11.34 139.37 C15.46 140.1, 21.19 140.78, 26.3 140.82 C31.42 140.86, 37.72 140.83, 42.04 139.62 C46.37 138.42, 50.47 135.45, 52.25 133.59 C54.03 131.74, 52.83 131.29, 52.71 128.48 C52.59 125.66, 51.53 136.55, 51.53 116.73 C51.53 96.9, 52.36 28.9, 52.7 9.52 C53.04 -9.86, 54.38 3.17, 53.57 0.47 C52.75 -2.24, 49.76 -5.29, 47.82 -6.71 C45.88 -8.13, 45.83 -6.88, 41.92 -8.07 C38 -9.25, 29.06 -13.67, 24.34 -13.84 C19.61 -14.02, 16.94 -10.55, 13.55 -9.11 C10.17 -7.68, 6.43 -7, 4.03 -5.23 C1.64 -3.47, -0.25 0.5, -0.82 1.46 C-1.39 2.42, 0.43 1.01, 0.6 0.53" stroke="#087f5b" stroke-width="1" fill="none"></path></g></g><g stroke-linecap="round"><g transform="translate(665.0346502737998 70.15514857126936) rotate(89.99999999999994 25.067201745283 5.456638388082013)"><path d="M-1.02 0.97 C-0.74 1.67, 0.32 3.67, 1.76 4.91 C3.19 6.15, 5.45 7.16, 7.56 8.41 C9.68 9.65, 11.42 11.69, 14.43 12.38 C17.44 13.07, 21.28 13.05, 25.63 12.57 C29.99 12.08, 36.53 10.94, 40.55 9.45 C44.56 7.96, 48.05 5.44, 49.73 3.61 C51.42 1.79, 50.41 -0.64, 50.65 -1.51 M0.64 0.43 C0.79 1.27, -0.04 4.9, 1.03 6.37 C2.09 7.84, 4.8 8.63, 7.04 9.25 C9.29 9.87, 11.14 9.43, 14.5 10.09 C17.86 10.74, 22.67 12.95, 27.22 13.19 C31.77 13.43, 37.9 12.82, 41.83 11.53 C45.75 10.24, 49.47 7.76, 50.77 5.45 C52.06 3.14, 49.75 -1.45, 49.58 -2.33" stroke="#087f5b" stroke-width="1" fill="none"></path></g></g><g stroke-linecap="round"><g transform="translate(710.4604314222415 70.49423369626948) rotate(89.99999999999994 25.62177680324669 4.659094018073006)"><path d="M0.97 0.42 C1.05 1.34, 0.31 3.4, 1.18 4.52 C2.05 5.64, 3.84 6.48, 6.18 7.13 C8.52 7.77, 11.73 7.99, 15.23 8.38 C18.72 8.77, 23.08 9.33, 27.15 9.46 C31.22 9.59, 36.19 10.13, 39.65 9.15 C43.11 8.16, 46.27 5.08, 47.94 3.55 C49.6 2.03, 49.38 0.79, 49.65 -0.02 M0.02 -0.41 C-0.13 0.24, -1.28 1.2, 0.16 2.64 C1.59 4.09, 6 7.23, 8.6 8.27 C11.2 9.31, 12.85 8.64, 15.73 8.88 C18.62 9.12, 21.79 9.78, 25.92 9.72 C30.05 9.66, 36.82 9.76, 40.52 8.5 C44.22 7.24, 46.22 3.61, 48.1 2.17 C49.98 0.73, 51.31 0.15, 51.8 -0.12" stroke="#087f5b" stroke-width="1" fill="none"></path></g></g><g stroke-linecap="round" transform="translate(757.0652045543566 64.64103777538128) rotate(89.99999999999994 25.639064267762706 11.398576284497977)"><path d="M20.95 0.49 C25.91 -0.34, 32.45 -0.42, 37.2 0.77 C41.96 1.96, 47.32 5.37, 49.49 7.63 C51.67 9.89, 51.98 12.04, 50.25 14.34 C48.51 16.65, 43.71 20.02, 39.08 21.47 C34.46 22.91, 27.84 23.54, 22.49 23.03 C17.14 22.52, 10.6 20.38, 7 18.4 C3.41 16.43, 1.35 13.44, 0.92 11.18 C0.5 8.92, 1.12 6.77, 4.45 4.85 C7.77 2.93, 17.89 0.29, 20.88 -0.34 C23.86 -0.98, 22.24 0.77, 22.35 1.02 M25.3 -1.07 C30.69 -1.12, 36.4 1.2, 40.42 2.87 C44.45 4.54, 48.22 6.9, 49.46 8.95 C50.69 11, 49.81 13.26, 47.81 15.19 C45.81 17.12, 42.37 19.26, 37.44 20.51 C32.51 21.77, 23.81 22.98, 18.21 22.71 C12.61 22.43, 6.74 20.86, 3.87 18.86 C1 16.87, 0.53 13.38, 0.98 10.74 C1.43 8.1, 2.92 4.67, 6.57 3.03 C10.23 1.4, 19.82 1.44, 22.93 0.94 C26.03 0.43, 25.14 -0.14, 25.2 -0.02" stroke="none" stroke-width="0" fill="#fff"></path><path d="M30.98 -0.74 C36.36 -0.43, 42.73 1.87, 45.96 4.03 C49.2 6.19, 50.71 9.77, 50.42 12.24 C50.12 14.7, 47.8 17.03, 44.21 18.83 C40.61 20.63, 34.29 22.76, 28.84 23.04 C23.4 23.31, 16.12 21.9, 11.57 20.46 C7.01 19.02, 3.2 16.47, 1.5 14.4 C-0.19 12.33, -0.46 10.18, 1.41 8.04 C3.28 5.91, 7.18 2.68, 12.73 1.59 C18.29 0.51, 30.77 1.65, 34.73 1.54 C38.69 1.43, 36.72 0.9, 36.49 0.96 M22.31 -1.21 C27.58 -1.86, 34.2 -0.22, 38.84 1.3 C43.47 2.82, 48.49 5.68, 50.12 7.91 C51.74 10.13, 50.43 12.43, 48.6 14.66 C46.76 16.9, 43.61 19.89, 39.1 21.32 C34.6 22.76, 26.87 23.81, 21.57 23.28 C16.27 22.74, 10.75 20.13, 7.32 18.11 C3.89 16.09, 1.04 13.36, 0.99 11.14 C0.95 8.92, 3.85 6.77, 7.03 4.79 C10.22 2.81, 17.6 -0.11, 20.1 -0.75 C22.61 -1.4, 21.6 0.39, 22.04 0.92" stroke="#087f5b" stroke-width="1" fill="none"></path></g><g stroke-linecap="round"><g transform="translate(449.2558796885928 77) rotate(0 94.00716263775246 -0.6169562160968667)"><path d="M-0.64 1.09 C30.38 0.54, 155.21 -1.83, 186.31 -2.32 M1.23 0.61 C32.63 0.16, 157.49 -0.77, 188.65 -0.95" stroke="#000000" stroke-width="1" fill="none"></path></g><g transform="translate(449.2558796885928 77) rotate(0 94.00716263775246 -0.6169562160968667)"><path d="M162.34 8.35 C168.75 4.55, 178.36 2.67, 189.55 -1.78 M159.86 8.52 C168.84 5.63, 178.44 2.06, 187.88 0.05" stroke="#000000" stroke-width="1" fill="none"></path></g><g transform="translate(449.2558796885928 77) rotate(0 94.00716263775246 -0.6169562160968667)"><path d="M162.2 -12.17 C168.81 -9.53, 178.47 -4.96, 189.55 -1.78 M159.72 -12 C168.69 -8.53, 178.34 -5.74, 187.88 0.05" stroke="#000000" stroke-width="1" fill="none"></path></g></g><g transform="translate(474.2558796885928 52) rotate(0 51.5 26)"><text x="0" y="18" font-family="Virgil, Segoe UI Emoji" font-size="20px" fill="#000000" text-anchor="start" style="white-space: pre;" direction="ltr">anonymised</text><text x="0" y="44" font-family="Virgil, Segoe UI Emoji" font-size="20px" fill="#000000" text-anchor="start" style="white-space: pre;" direction="ltr">messages</text></g><g stroke-linecap="round" transform="translate(889.2558796885928 19) rotate(0 86 58)"><path d="M-1.09 -0.86 C51.69 0.14, 98.79 -0.26, 173.9 0.04 M-0.34 -0.38 C47.83 -0.38, 94.89 -1.28, 172.85 -0.27 M172.42 -0.8 C173.73 37.61, 173.19 79.78, 170.77 116.04 M171.76 0.15 C172.35 31.89, 171.23 60.96, 171.71 116.37 M172.63 115.72 C116.9 116.73, 59.33 117.56, 0.67 115.98 M172.1 115.59 C111.59 116.17, 50.32 116.18, -0.11 115.06 M1.06 117.11 C-0.05 86.93, 1.45 57.33, 0.84 0.01 M-0.15 115.94 C-1.65 80.87, -1.32 48.2, -0.04 0.66" stroke="#000000" stroke-width="1" fill="none"></path></g><g transform="translate(894.2558796885928 64) rotate(0 81 13)"><text x="81" y="18" font-family="Virgil, Segoe UI Emoji" font-size="20px" fill="#000000" text-anchor="middle" style="white-space: pre;" direction="ltr">GEC Processor</text></g><g stroke-linecap="round"><g transform="translate(796.2558796885928 78) rotate(0 39.352007980388635 -0.7219890773296243)"><path d="M0.79 -0.03 C13.76 -0.46, 65.8 -1.09, 78.96 -1.41 M-0.26 -1.09 C12.46 -0.85, 64.72 -0.08, 77.99 -0.09" stroke="#000000" stroke-width="1" fill="none"></path></g><g transform="translate(796.2558796885928 78) rotate(0 39.352007980388635 -0.7219890773296243)"><path d="M49.67 9.88 C60.03 7.1, 70.16 2.82, 77.81 1.45 M50.32 9.23 C58.01 7.66, 66.56 3.46, 78.31 0.86" stroke="#000000" stroke-width="1" fill="none"></path></g><g transform="translate(796.2558796885928 78) rotate(0 39.352007980388635 -0.7219890773296243)"><path d="M49.83 -10.64 C60.33 -5.37, 70.4 -1.59, 77.81 1.45 M50.49 -11.29 C58.1 -6.73, 66.6 -4.81, 78.31 0.86" stroke="#000000" stroke-width="1" fill="none"></path></g></g><g stroke-linecap="round"><g transform="translate(1238.5620606781563 9.050192013704276) rotate(89.99999999999994 26.346917638246964 64.61702615922036)" fill-rule="evenodd"><path d="M2.08 -4.82 C2.08 -4.82, 2.08 -4.82, 2.08 -4.82 M2.08 -4.82 C2.08 -4.82, 2.08 -4.82, 2.08 -4.82 M0.66 2.63 C6.4 -2.03, 10.97 -8.82, 10.84 -8.93 M1.04 1.07 C4.24 -0.24, 5.86 -3.78, 12.5 -10.77 M2.65 7.05 C8.74 -1.3, 14.95 -8.73, 17.67 -11.34 M1.89 7.39 C7 0.96, 13 -6.76, 18.81 -11.79 M0.21 15.22 C7.32 8.67, 13.24 -1.56, 23.3 -12.13 M1.18 13.37 C9.59 5.37, 15.77 -1.26, 24.65 -11.93 M1.13 18.34 C11.69 11.36, 16.99 2.66, 27.21 -11.24 M0.88 19.37 C9.12 12.23, 16.39 3.1, 27.09 -9.89 M0.65 24.32 C14.35 13.99, 25.86 -2.15, 30.74 -10.57 M2.3 26.11 C10.07 17.25, 17.41 9.38, 33.1 -9.06 M0.89 31.04 C12.94 17, 26.28 5.73, 38.45 -6.25 M2.05 31.12 C14.47 16.7, 27.31 1.69, 35.82 -8.78 M1.16 39.35 C12.08 26.18, 23.8 12.48, 39.78 -6.98 M2.9 37.16 C18.41 19.12, 33.64 1.7, 40.71 -7.16 M1.66 46.06 C18.38 24.2, 37.28 4.51, 47.34 -7.97 M1.96 44.78 C18.94 23.1, 37.25 3.05, 46.4 -7.5 M1.73 48.95 C14.47 37.61, 25.31 25.23, 49.36 -3.2 M1.45 48.76 C15.5 34.31, 29.57 17.47, 49.53 -3.1 M3.65 55.78 C21.41 36.59, 36.96 14.18, 50.45 0.53 M2.94 56.69 C15.76 39.83, 30.87 23.07, 52.13 -1.76 M52.61 -1.97 C52.61 -1.97, 52.61 -1.97, 52.61 -1.97 M52.61 -1.97 C52.61 -1.97, 52.61 -1.97, 52.61 -1.97 M3.86 61.72 C17.11 44.86, 31.68 29.69, 50.36 3.26 M3.32 61.08 C15.71 47.06, 27.36 34.22, 51.57 4.53 M1.05 66.32 C14.59 54.92, 27.21 39.2, 51.91 12.43 M2.5 68.15 C13.85 55.1, 25.74 41.48, 51.19 10.62 M2.34 72.81 C15.71 59.06, 28.92 43.24, 51.28 16.13 M1.75 74.35 C17.48 58.14, 31.85 40.95, 52.14 16.13 M2.64 78.53 C23.33 57.88, 41.95 33.24, 52.17 23.69 M3.05 79.32 C17.57 61.47, 35.06 43.37, 51.77 23.36 M2.38 88.06 C17.66 69.75, 30.5 55.88, 53.43 29.38 M1.38 85.72 C14.44 72.13, 26.75 58.57, 52.56 28.86 M1.19 90.91 C22.91 68.32, 41.14 48.22, 52.84 33.47 M2.84 92.49 C21.91 70.16, 40.14 48.04, 52.33 33.96 M1.56 98.61 C17.71 78.87, 35.67 61.11, 52.65 39.92 M2.87 99.31 C21.03 78.93, 39.26 56.27, 52.36 41.98 M3.18 105.61 C13.5 90.92, 24.81 77.1, 50.66 45.67 M3.05 105.14 C17.65 85.71, 33.08 67.66, 52.93 47.02 M2.6 110.36 C10.52 100.69, 20.72 89.23, 51.22 53.89 M3.3 110.72 C20.06 90.57, 36.47 70.11, 52.81 52.71 M3.58 116.26 C14.84 103.47, 27.28 88.41, 50.84 59.69 M2.65 117.02 C12.68 103.88, 24.33 90.7, 53.4 59.41 M0.73 124.71 C14.68 111.73, 26.01 96.43, 53.95 67.18 M1.5 121.81 C18.69 105.35, 32.54 86.55, 52.95 64.79 M1.21 128.79 C23.51 106.55, 42.51 85.84, 50.47 71.18 M1.68 128.87 C22.2 105.42, 40.86 83.68, 52.67 71 M3.68 134.56 C18.95 116.34, 37.06 94.9, 50.84 78.46 M2.03 134.71 C22.51 113.06, 41.5 91.96, 52.23 77.47 M4.65 138.54 C21.22 116.56, 41.16 99.23, 53.08 85.04 M5.17 137.64 C14.4 125.88, 25.3 114.72, 51.36 83.64 M9.57 141.51 C19.62 128.08, 26.4 116.47, 52.35 89.87 M9.12 140.99 C22.05 124.52, 37.68 107.38, 51.85 90.22 M14.37 141.68 C22.36 131.81, 31.49 120.26, 52.73 95.9 M13.33 141.83 C22.91 130.71, 33.06 119.24, 51.89 95.7 M15.86 141.25 C27.26 127.25, 39.5 115.18, 52.8 103.8 M17.58 143.02 C28.92 128.8, 38.55 116.55, 52.11 101.56 M20.71 144.87 C28.65 132.94, 39.33 123.72, 52.67 109.19 M21.48 143.18 C30.65 134.11, 38.88 123.12, 53.1 107.05 M27.11 141.91 C34.94 131.22, 43.05 121.03, 52.99 115.91 M28.57 142.43 C38 131.63, 46.08 122.13, 53 113.94 M35.79 140.23 C41.99 133.07, 46.42 124.26, 52.6 121.78 M33.94 141.68 C40.84 133.11, 46.75 126.73, 53.55 119.78 M40.36 139.23 C44.59 137.53, 47.55 134.47, 52.24 127.53 M39.04 141.07 C44.44 134.92, 48.65 131.42, 52.34 126.38 M44.04 141.16 C46.03 137.51, 49.13 137.11, 54.08 129.14 M44.45 141.25 C48.51 138.28, 51.26 135.09, 54.64 130.69" stroke="#40c057" stroke-width="0.5" fill="none"></path><path d="M-0.77 -0.77 C-0.7 18.87, 0.46 95.89, 0.74 117.73 C1.03 139.58, 0.79 127.36, 0.96 130.29 C1.12 133.22, -0.28 133.47, 1.73 135.32 C3.75 137.17, 8.78 140.28, 13.05 141.37 C17.32 142.47, 22.25 142.11, 27.34 141.87 C32.42 141.64, 39.53 141.08, 43.56 139.95 C47.6 138.82, 50.01 136.77, 51.54 135.1 C53.08 133.43, 52.53 132.91, 52.76 129.95 C52.98 126.99, 53.1 137.3, 52.89 117.32 C52.67 97.34, 51.63 29.64, 51.47 10.08 C51.32 -9.47, 52.57 2.87, 51.97 -0.01 C51.37 -2.89, 49.76 -5.47, 47.87 -7.2 C45.98 -8.92, 44.26 -9.51, 40.62 -10.36 C36.99 -11.21, 30.76 -12.36, 26.07 -12.31 C21.39 -12.26, 16.35 -11.17, 12.51 -10.04 C8.67 -8.91, 5.12 -7.37, 3.04 -5.52 C0.96 -3.68, 0.7 -0.05, 0.01 1.05 C-0.67 2.15, -1.18 1.3, -1.07 1.07 M1.03 1.44 C0.96 20.77, 0.15 94.38, 0.1 116.09 C0.04 137.8, 0.46 128.35, 0.69 131.7 C0.92 135.04, -0.43 134.4, 1.47 136.14 C3.37 137.87, 7.6 141.35, 12.1 142.1 C16.6 142.85, 23.07 141.21, 28.48 140.64 C33.88 140.07, 40.79 139.56, 44.51 138.67 C48.24 137.78, 49.65 136.93, 50.8 135.32 C51.95 133.7, 50.88 131.54, 51.41 128.98 C51.94 126.41, 53.97 139.56, 53.97 119.93 C53.97 100.3, 51.99 31.24, 51.43 11.22 C50.87 -8.8, 51.22 2.49, 50.61 -0.19 C49.99 -2.88, 49 -3.09, 47.76 -4.89 C46.51 -6.69, 46.64 -9.66, 43.15 -10.99 C39.65 -12.32, 31.72 -12.67, 26.79 -12.86 C21.87 -13.05, 17.7 -13.43, 13.6 -12.12 C9.51 -10.82, 4.68 -6.79, 2.21 -5.05 C-0.27 -3.3, -0.99 -2.2, -1.25 -1.66 C-1.51 -1.11, 0.19 -2.28, 0.64 -1.77" stroke="#087f5b" stroke-width="1" fill="none"></path></g></g><g stroke-linecap="round"><g transform="translate(1214.0346502737993 68.15514857126959) rotate(89.99999999999994 25.502638350475195 6.409635311887001)"><path d="M-0.77 0.57 C-0.37 1.7, 0.91 4.71, 2.25 6.01 C3.59 7.3, 5.27 7.2, 7.27 8.34 C9.26 9.49, 10.86 12.34, 14.22 12.88 C17.58 13.42, 23.05 11.89, 27.42 11.59 C31.79 11.29, 36.81 12.15, 40.43 11.07 C44.04 9.98, 47.22 6.9, 49.11 5.07 C51 3.23, 51.38 0.88, 51.77 0.04 M1.03 -0.17 C1.35 0.7, 0.85 2.83, 1.78 4.38 C2.71 5.94, 4.52 8.08, 6.59 9.16 C8.66 10.23, 10.9 10.42, 14.18 10.85 C17.46 11.27, 21.71 11.79, 26.29 11.71 C30.87 11.62, 37.72 11.62, 41.64 10.34 C45.56 9.05, 48.2 5.72, 49.81 4.01 C51.42 2.29, 51.23 0.87, 51.3 0.03" stroke="#087f5b" stroke-width="1" fill="none"></path></g></g><g stroke-linecap="round"><g transform="translate(1259.4604314222413 68.4942336962697) rotate(89.99999999999994 25.314265342723843 5.2877858773735795)"><path d="M0.57 0.91 C1.08 1.75, 1.36 3.23, 2.28 4.23 C3.2 5.23, 3.87 5.93, 6.11 6.92 C8.36 7.91, 12.38 9.76, 15.72 10.17 C19.07 10.57, 21.92 9.61, 26.18 9.34 C30.44 9.07, 37.4 9.3, 41.27 8.52 C45.14 7.74, 47.73 6.05, 49.39 4.68 C51.04 3.31, 50.9 1.36, 51.2 0.31 M-0.59 0.35 C-0.09 1.47, 0.31 4.59, 1.83 5.85 C3.34 7.12, 6.06 7.6, 8.5 7.95 C10.95 8.3, 13.23 7.68, 16.49 7.95 C19.76 8.21, 24.29 9.6, 28.09 9.53 C31.9 9.47, 35.63 8.49, 39.33 7.55 C43.04 6.6, 48.46 5.08, 50.32 3.89 C52.18 2.7, 50.59 1.02, 50.5 0.38" stroke="#087f5b" stroke-width="1" fill="none"></path></g></g><g stroke-linecap="round" transform="translate(1306.0652045543563 62.641037775381506) rotate(89.99999999999994 25.639064267762706 11.398576284497977)"><path d="M37.62 0.39 C42.46 1.22, 47.42 4.67, 49.64 7.17 C51.86 9.66, 52.67 13.24, 50.94 15.36 C49.22 17.48, 43.78 18.8, 39.31 19.88 C34.84 20.96, 29.56 21.91, 24.13 21.82 C18.7 21.74, 10.9 21.05, 6.73 19.36 C2.56 17.66, -0.61 13.93, -0.9 11.65 C-1.19 9.36, 1.72 7.58, 4.99 5.62 C8.27 3.67, 12.48 0.46, 18.76 -0.07 C25.03 -0.6, 37.86 1.59, 42.64 2.42 C47.42 3.26, 47.76 4.63, 47.42 4.92 M19.7 -0.69 C24.53 -1.13, 31.38 0.16, 36.45 1.44 C41.52 2.73, 47.7 4.73, 50.11 7.02 C52.53 9.31, 52.81 13.03, 50.93 15.17 C49.06 17.31, 43.51 18.82, 38.84 19.86 C34.17 20.9, 28.32 21.46, 22.9 21.4 C17.48 21.34, 10.14 21.16, 6.3 19.52 C2.45 17.87, -0.08 14.07, -0.17 11.53 C-0.26 9, 2.64 5.99, 5.74 4.32 C8.84 2.65, 16.13 1.91, 18.43 1.5 C20.73 1.1, 19.27 2.1, 19.53 1.88" stroke="none" stroke-width="0" fill="#fff"></path><path d="M28.27 0.56 C33.56 0.61, 39.13 1.27, 43.02 2.89 C46.92 4.52, 50.91 7.69, 51.63 10.32 C52.35 12.94, 50.41 16.54, 47.34 18.66 C44.27 20.77, 38.49 22.64, 33.21 23.01 C27.94 23.37, 20.9 21.92, 15.7 20.86 C10.5 19.8, 4.49 18.6, 2.01 16.63 C-0.46 14.65, -0.5 11.56, 0.84 9.02 C2.18 6.47, 4.5 2.84, 10.04 1.34 C15.58 -0.15, 28.81 -0.15, 34.08 0.05 C39.34 0.26, 41.64 2.19, 41.61 2.57 M35.45 -0.71 C40.82 0.04, 46.47 4.23, 48.99 6.35 C51.51 8.46, 51.85 9.54, 50.58 11.99 C49.3 14.45, 45.36 19.29, 41.37 21.07 C37.38 22.85, 31.84 22.95, 26.61 22.67 C21.38 22.39, 14.21 20.89, 9.99 19.38 C5.77 17.87, 2.45 16.04, 1.29 13.62 C0.13 11.2, 0.46 6.98, 3.03 4.85 C5.61 2.73, 11.62 1.37, 16.75 0.87 C21.89 0.37, 31.14 1.78, 33.85 1.85 C36.55 1.91, 32.91 1.29, 32.98 1.26" stroke="#087f5b" stroke-width="1" fill="none"></path></g><g stroke-linecap="round"><g transform="translate(1075.2558796885928 76) rotate(0 49.99816532635123 -1.1288905179174549)"><path d="M0.89 0.23 C17.3 0.18, 81.62 -0.48, 97.94 -0.58 M-0.1 -0.7 C16.72 -1.09, 83.75 -2.2, 100.1 -2.49" stroke="#000000" stroke-width="1" fill="none"></path></g><g transform="translate(1075.2558796885928 76) rotate(0 49.99816532635123 -1.1288905179174549)"><path d="M72.47 6.49 C79.97 5.01, 87.42 1.31, 98.89 -2.83 M71.88 8.03 C80.95 5.48, 88.85 1.9, 99.76 -2.83" stroke="#000000" stroke-width="1" fill="none"></path></g><g transform="translate(1075.2558796885928 76) rotate(0 49.99816532635123 -1.1288905179174549)"><path d="M72.11 -14.03 C79.66 -10.26, 87.19 -8.72, 98.89 -2.83 M71.52 -12.49 C80.61 -9.14, 88.61 -6.83, 99.76 -2.83" stroke="#000000" stroke-width="1" fill="none"></path></g></g><g transform="translate(1074.2558796885928 49) rotate(0 45.5 26)"><text x="0" y="18" font-family="Virgil, Segoe UI Emoji" font-size="20px" fill="#000000" text-anchor="start" style="white-space: pre;" direction="ltr">labelled</text><text x="0" y="44" font-family="Virgil, Segoe UI Emoji" font-size="20px" fill="#000000" text-anchor="start" style="white-space: pre;" direction="ltr">messages</text></g><g stroke-linecap="round" transform="translate(1435.2558796885928 16) rotate(0 94 64.5)"><path d="M-0.23 -0.93 C49.87 -0.82, 96.45 -2.64, 189.04 1.65 M-0.07 0.58 C48.73 1.62, 98.3 0.87, 188.04 0.67 M189.13 -1.95 C186.56 29.53, 188.91 58.15, 189.21 127.33 M188.23 -0.91 C187.84 48.52, 188.28 96.39, 187.82 128.21 M189.48 130.67 C114.33 128.57, 40.87 129.58, 0.4 129.43 M188.96 128.34 C128.93 130.72, 68.33 129.1, 0.76 128.49 M0.53 128.14 C2.08 100.7, 1.81 75.83, 0.04 -1.07 M0.68 129.44 C0.62 84.93, 0.31 38.62, -0.16 0.44" stroke="#000000" stroke-width="1" fill="none"></path></g><g transform="translate(1440.2558796885928 67.5) rotate(0 89 13)"><text x="89" y="18" font-family="Virgil, Segoe UI Emoji" font-size="20px" fill="#000000" text-anchor="middle" style="white-space: pre;" direction="ltr">GEC Slacker</text></g><g stroke-linecap="round"><g transform="translate(1352.6844511171641 74.28571428571433) rotate(0 42.08409711286288 -0.36397927944017283)"><path d="M0.78 -0.79 C14.27 -0.72, 68.43 -0.21, 82.12 -0.5 M-0.27 1.41 C13.51 1.24, 70.7 -1.6, 84.44 -2.14" stroke="#000000" stroke-width="1" fill="none"></path></g><g transform="translate(1352.6844511171641 74.28571428571433) rotate(0 42.08409711286288 -0.36397927944017283)"><path d="M55.42 8.14 C69.34 4.71, 76.88 1.07, 86.4 -3.78 M57.13 8.92 C62.25 7.09, 68.43 4.89, 83.57 -1.3" stroke="#000000" stroke-width="1" fill="none"></path></g><g transform="translate(1352.6844511171641 74.28571428571433) rotate(0 42.08409711286288 -0.36397927944017283)"><path d="M54.5 -12.36 C68.63 -7.68, 76.53 -3.19, 86.4 -3.78 M56.21 -11.58 C61.63 -9.15, 68 -7.08, 83.57 -1.3" stroke="#000000" stroke-width="1" fill="none"></path></g></g><g stroke-linecap="round" transform="translate(1767.8517606979708 14.43717009648418) rotate(0 63.94191786606939 38.268516949888834)"><path d="M-0.26 -0.34 C36.95 1.99, 74.07 -0.6, 129.84 -1.99 M0.13 -0.92 C26.45 -0.74, 51.16 -1.02, 128.22 -0.23 M128.03 -1.54 C127.61 23.52, 129.3 46.49, 127.51 75.27 M127.31 -0.83 C127.54 24.51, 127.95 47.44, 127.84 76.38 M126.38 75.28 C79.33 75.69, 27.34 77.08, 1.74 75.27 M128.81 77 C85.49 78.02, 42.74 77.25, 0.53 75.87 M-1.76 78.02 C-1.04 57.42, -1.55 35.25, 0.46 1.77 M0.6 77.44 C-1.5 54.27, -0.78 30.41, 0.93 -0.45" stroke="#000000" stroke-width="1" fill="none"></path></g><g stroke-linecap="round"><g transform="translate(1766.7761629470756 25.15370448872835) rotate(0 63.8196745274895 -0.30603836461328626)"><path d="M-0.15 -0.2 C21.42 0.04, 107.65 0.84, 129.33 0.74 M-1.69 -1.36 C19.78 -1.39, 106.74 -1.23, 128.64 -0.99" stroke="#000000" stroke-width="1" fill="none"></path></g></g><g stroke-linecap="round" transform="translate(1772.3397961669257 18.708739896493) rotate(0 2.5009765625 2.5009765625)"><path d="M5 2.5 C5 2.65, 4.99 2.79, 4.96 2.94 C4.94 3.08, 4.9 3.22, 4.85 3.36 C4.8 3.49, 4.74 3.63, 4.67 3.75 C4.59 3.88, 4.51 4, 4.42 4.11 C4.32 4.22, 4.22 4.32, 4.11 4.42 C4 4.51, 3.88 4.59, 3.75 4.67 C3.63 4.74, 3.49 4.8, 3.36 4.85 C3.22 4.9, 3.08 4.94, 2.94 4.96 C2.79 4.99, 2.65 5, 2.5 5 C2.36 5, 2.21 4.99, 2.07 4.96 C1.92 4.94, 1.78 4.9, 1.65 4.85 C1.51 4.8, 1.38 4.74, 1.25 4.67 C1.13 4.59, 1 4.51, 0.89 4.42 C0.78 4.32, 0.68 4.22, 0.59 4.11 C0.49 4, 0.41 3.88, 0.34 3.75 C0.26 3.63, 0.2 3.49, 0.15 3.36 C0.1 3.22, 0.06 3.08, 0.04 2.94 C0.01 2.79, 0 2.65, 0 2.5 C0 2.36, 0.01 2.21, 0.04 2.07 C0.06 1.92, 0.1 1.78, 0.15 1.65 C0.2 1.51, 0.26 1.38, 0.34 1.25 C0.41 1.13, 0.49 1, 0.59 0.89 C0.68 0.78, 0.78 0.68, 0.89 0.59 C1 0.49, 1.13 0.41, 1.25 0.34 C1.38 0.26, 1.51 0.2, 1.65 0.15 C1.78 0.1, 1.92 0.06, 2.07 0.04 C2.21 0.01, 2.36 0, 2.5 0 C2.65 0, 2.79 0.01, 2.94 0.04 C3.08 0.06, 3.22 0.1, 3.36 0.15 C3.49 0.2, 3.63 0.26, 3.75 0.34 C3.88 0.41, 4 0.49, 4.11 0.59 C4.22 0.68, 4.32 0.78, 4.42 0.89 C4.51 1, 4.59 1.13, 4.67 1.25 C4.74 1.38, 4.8 1.51, 4.85 1.65 C4.9 1.78, 4.94 1.92, 4.96 2.07 C4.99 2.21, 5 2.43, 5 2.5 C5.01 2.57, 5.01 2.43, 5 2.5" stroke="none" stroke-width="0" fill="#fa5252"></path><path d="M5 2.5 C5 2.65, 4.99 2.79, 4.96 2.94 C4.94 3.08, 4.9 3.22, 4.85 3.36 C4.8 3.49, 4.74 3.63, 4.67 3.75 C4.59 3.88, 4.51 4, 4.42 4.11 C4.32 4.22, 4.22 4.32, 4.11 4.42 C4 4.51, 3.88 4.59, 3.75 4.67 C3.63 4.74, 3.49 4.8, 3.36 4.85 C3.22 4.9, 3.08 4.94, 2.94 4.96 C2.79 4.99, 2.65 5, 2.5 5 C2.36 5, 2.21 4.99, 2.07 4.96 C1.92 4.94, 1.78 4.9, 1.65 4.85 C1.51 4.8, 1.38 4.74, 1.25 4.67 C1.13 4.59, 1 4.51, 0.89 4.42 C0.78 4.32, 0.68 4.22, 0.59 4.11 C0.49 4, 0.41 3.88, 0.34 3.75 C0.26 3.63, 0.2 3.49, 0.15 3.36 C0.1 3.22, 0.06 3.08, 0.04 2.94 C0.01 2.79, 0 2.65, 0 2.5 C0 2.36, 0.01 2.21, 0.04 2.07 C0.06 1.92, 0.1 1.78, 0.15 1.65 C0.2 1.51, 0.26 1.38, 0.34 1.25 C0.41 1.13, 0.49 1, 0.59 0.89 C0.68 0.78, 0.78 0.68, 0.89 0.59 C1 0.49, 1.13 0.41, 1.25 0.34 C1.38 0.26, 1.51 0.2, 1.65 0.15 C1.78 0.1, 1.92 0.06, 2.07 0.04 C2.21 0.01, 2.36 0, 2.5 0 C2.65 0, 2.79 0.01, 2.94 0.04 C3.08 0.06, 3.22 0.1, 3.36 0.15 C3.49 0.2, 3.63 0.26, 3.75 0.34 C3.88 0.41, 4 0.49, 4.11 0.59 C4.22 0.68, 4.32 0.78, 4.42 0.89 C4.51 1, 4.59 1.13, 4.67 1.25 C4.74 1.38, 4.8 1.51, 4.85 1.65 C4.9 1.78, 4.94 1.92, 4.96 2.07 C4.99 2.21, 5 2.43, 5 2.5 C5.01 2.57, 5.01 2.43, 5 2.5" stroke="#000000" stroke-width="1" fill="none"></path></g><g stroke-linecap="round" transform="translate(1782.6024914794257 18.708739896493) rotate(0 2.5009765625 2.5009765625)"><path d="M5 2.5 C5 2.65, 4.99 2.79, 4.96 2.94 C4.94 3.08, 4.9 3.22, 4.85 3.36 C4.8 3.49, 4.74 3.63, 4.67 3.75 C4.59 3.88, 4.51 4, 4.42 4.11 C4.32 4.22, 4.22 4.32, 4.11 4.42 C4 4.51, 3.88 4.59, 3.75 4.67 C3.63 4.74, 3.49 4.8, 3.36 4.85 C3.22 4.9, 3.08 4.94, 2.94 4.96 C2.79 4.99, 2.65 5, 2.5 5 C2.36 5, 2.21 4.99, 2.07 4.96 C1.92 4.94, 1.78 4.9, 1.65 4.85 C1.51 4.8, 1.38 4.74, 1.25 4.67 C1.13 4.59, 1 4.51, 0.89 4.42 C0.78 4.32, 0.68 4.22, 0.59 4.11 C0.49 4, 0.41 3.88, 0.34 3.75 C0.26 3.63, 0.2 3.49, 0.15 3.36 C0.1 3.22, 0.06 3.08, 0.04 2.94 C0.01 2.79, 0 2.65, 0 2.5 C0 2.36, 0.01 2.21, 0.04 2.07 C0.06 1.92, 0.1 1.78, 0.15 1.65 C0.2 1.51, 0.26 1.38, 0.34 1.25 C0.41 1.13, 0.49 1, 0.59 0.89 C0.68 0.78, 0.78 0.68, 0.89 0.59 C1 0.49, 1.13 0.41, 1.25 0.34 C1.38 0.26, 1.51 0.2, 1.65 0.15 C1.78 0.1, 1.92 0.06, 2.07 0.04 C2.21 0.01, 2.36 0, 2.5 0 C2.65 0, 2.79 0.01, 2.94 0.04 C3.08 0.06, 3.22 0.1, 3.36 0.15 C3.49 0.2, 3.63 0.26, 3.75 0.34 C3.88 0.41, 4 0.49, 4.11 0.59 C4.22 0.68, 4.32 0.78, 4.42 0.89 C4.51 1, 4.59 1.13, 4.67 1.25 C4.74 1.38, 4.8 1.51, 4.85 1.65 C4.9 1.78, 4.94 1.92, 4.96 2.07 C4.99 2.21, 5 2.43, 5 2.5 C5.01 2.57, 5.01 2.43, 5 2.5" stroke="none" stroke-width="0" fill="#fab005"></path><path d="M5 2.5 C5 2.65, 4.99 2.79, 4.96 2.94 C4.94 3.08, 4.9 3.22, 4.85 3.36 C4.8 3.49, 4.74 3.63, 4.67 3.75 C4.59 3.88, 4.51 4, 4.42 4.11 C4.32 4.22, 4.22 4.32, 4.11 4.42 C4 4.51, 3.88 4.59, 3.75 4.67 C3.63 4.74, 3.49 4.8, 3.36 4.85 C3.22 4.9, 3.08 4.94, 2.94 4.96 C2.79 4.99, 2.65 5, 2.5 5 C2.36 5, 2.21 4.99, 2.07 4.96 C1.92 4.94, 1.78 4.9, 1.65 4.85 C1.51 4.8, 1.38 4.74, 1.25 4.67 C1.13 4.59, 1 4.51, 0.89 4.42 C0.78 4.32, 0.68 4.22, 0.59 4.11 C0.49 4, 0.41 3.88, 0.34 3.75 C0.26 3.63, 0.2 3.49, 0.15 3.36 C0.1 3.22, 0.06 3.08, 0.04 2.94 C0.01 2.79, 0 2.65, 0 2.5 C0 2.36, 0.01 2.21, 0.04 2.07 C0.06 1.92, 0.1 1.78, 0.15 1.65 C0.2 1.51, 0.26 1.38, 0.34 1.25 C0.41 1.13, 0.49 1, 0.59 0.89 C0.68 0.78, 0.78 0.68, 0.89 0.59 C1 0.49, 1.13 0.41, 1.25 0.34 C1.38 0.26, 1.51 0.2, 1.65 0.15 C1.78 0.1, 1.92 0.06, 2.07 0.04 C2.21 0.01, 2.36 0, 2.5 0 C2.65 0, 2.79 0.01, 2.94 0.04 C3.08 0.06, 3.22 0.1, 3.36 0.15 C3.49 0.2, 3.63 0.26, 3.75 0.34 C3.88 0.41, 4 0.49, 4.11 0.59 C4.22 0.68, 4.32 0.78, 4.42 0.89 C4.51 1, 4.59 1.13, 4.67 1.25 C4.74 1.38, 4.8 1.51, 4.85 1.65 C4.9 1.78, 4.94 1.92, 4.96 2.07 C4.99 2.21, 5 2.43, 5 2.5 C5.01 2.57, 5.01 2.43, 5 2.5" stroke="#000000" stroke-width="1" fill="none"></path></g><g stroke-linecap="round" transform="translate(1793.3159079457719 19.15946105033919) rotate(0 2.5009765625 2.5009765625)"><path d="M5 2.5 C5 2.65, 4.99 2.79, 4.96 2.94 C4.94 3.08, 4.9 3.22, 4.85 3.36 C4.8 3.49, 4.74 3.63, 4.67 3.75 C4.59 3.88, 4.51 4, 4.42 4.11 C4.32 4.22, 4.22 4.32, 4.11 4.42 C4 4.51, 3.88 4.59, 3.75 4.67 C3.63 4.74, 3.49 4.8, 3.36 4.85 C3.22 4.9, 3.08 4.94, 2.94 4.96 C2.79 4.99, 2.65 5, 2.5 5 C2.36 5, 2.21 4.99, 2.07 4.96 C1.92 4.94, 1.78 4.9, 1.65 4.85 C1.51 4.8, 1.38 4.74, 1.25 4.67 C1.13 4.59, 1 4.51, 0.89 4.42 C0.78 4.32, 0.68 4.22, 0.59 4.11 C0.49 4, 0.41 3.88, 0.34 3.75 C0.26 3.63, 0.2 3.49, 0.15 3.36 C0.1 3.22, 0.06 3.08, 0.04 2.94 C0.01 2.79, 0 2.65, 0 2.5 C0 2.36, 0.01 2.21, 0.04 2.07 C0.06 1.92, 0.1 1.78, 0.15 1.65 C0.2 1.51, 0.26 1.38, 0.34 1.25 C0.41 1.13, 0.49 1, 0.59 0.89 C0.68 0.78, 0.78 0.68, 0.89 0.59 C1 0.49, 1.13 0.41, 1.25 0.34 C1.38 0.26, 1.51 0.2, 1.65 0.15 C1.78 0.1, 1.92 0.06, 2.07 0.04 C2.21 0.01, 2.36 0, 2.5 0 C2.65 0, 2.79 0.01, 2.94 0.04 C3.08 0.06, 3.22 0.1, 3.36 0.15 C3.49 0.2, 3.63 0.26, 3.75 0.34 C3.88 0.41, 4 0.49, 4.11 0.59 C4.22 0.68, 4.32 0.78, 4.42 0.89 C4.51 1, 4.59 1.13, 4.67 1.25 C4.74 1.38, 4.8 1.51, 4.85 1.65 C4.9 1.78, 4.94 1.92, 4.96 2.07 C4.99 2.21, 5 2.43, 5 2.5 C5.01 2.57, 5.01 2.43, 5 2.5" stroke="none" stroke-width="0" fill="#40c057"></path><path d="M5 2.5 C5 2.65, 4.99 2.79, 4.96 2.94 C4.94 3.08, 4.9 3.22, 4.85 3.36 C4.8 3.49, 4.74 3.63, 4.67 3.75 C4.59 3.88, 4.51 4, 4.42 4.11 C4.32 4.22, 4.22 4.32, 4.11 4.42 C4 4.51, 3.88 4.59, 3.75 4.67 C3.63 4.74, 3.49 4.8, 3.36 4.85 C3.22 4.9, 3.08 4.94, 2.94 4.96 C2.79 4.99, 2.65 5, 2.5 5 C2.36 5, 2.21 4.99, 2.07 4.96 C1.92 4.94, 1.78 4.9, 1.65 4.85 C1.51 4.8, 1.38 4.74, 1.25 4.67 C1.13 4.59, 1 4.51, 0.89 4.42 C0.78 4.32, 0.68 4.22, 0.59 4.11 C0.49 4, 0.41 3.88, 0.34 3.75 C0.26 3.63, 0.2 3.49, 0.15 3.36 C0.1 3.22, 0.06 3.08, 0.04 2.94 C0.01 2.79, 0 2.65, 0 2.5 C0 2.36, 0.01 2.21, 0.04 2.07 C0.06 1.92, 0.1 1.78, 0.15 1.65 C0.2 1.51, 0.26 1.38, 0.34 1.25 C0.41 1.13, 0.49 1, 0.59 0.89 C0.68 0.78, 0.78 0.68, 0.89 0.59 C1 0.49, 1.13 0.41, 1.25 0.34 C1.38 0.26, 1.51 0.2, 1.65 0.15 C1.78 0.1, 1.92 0.06, 2.07 0.04 C2.21 0.01, 2.36 0, 2.5 0 C2.65 0, 2.79 0.01, 2.94 0.04 C3.08 0.06, 3.22 0.1, 3.36 0.15 C3.49 0.2, 3.63 0.26, 3.75 0.34 C3.88 0.41, 4 0.49, 4.11 0.59 C4.22 0.68, 4.32 0.78, 4.42 0.89 C4.51 1, 4.59 1.13, 4.67 1.25 C4.74 1.38, 4.8 1.51, 4.85 1.65 C4.9 1.78, 4.94 1.92, 4.96 2.07 C4.99 2.21, 5 2.43, 5 2.5 C5.01 2.57, 5.01 2.43, 5 2.5" stroke="#000000" stroke-width="1" fill="none"></path></g><g stroke-opacity="0.9" fill-opacity="0.9" stroke-linecap="round" transform="translate(1809.3429689353993 35.21182992835503) rotate(0 21.360101269687902 21.360101269687874)"><path d="M14.8 0.29 C19 -1.42, 25.41 -0.94, 29.74 0.68 C34.06 2.29, 38.67 5.84, 40.75 10 C42.84 14.16, 43.08 20.99, 42.24 25.65 C41.4 30.31, 39.12 35.26, 35.7 37.97 C32.29 40.69, 26.38 41.87, 21.75 41.94 C17.13 42.01, 11.7 41.12, 7.96 38.4 C4.22 35.67, 0.19 30.23, -0.66 25.59 C-1.52 20.95, -0.4 14.83, 2.83 10.53 C6.07 6.24, 15.56 1.52, 18.75 -0.16 C21.94 -1.83, 21.99 0.15, 22 0.47 M17.49 -0.58 C21.43 -1.88, 26.82 0.16, 30.73 2.7 C34.64 5.25, 39.08 10.52, 40.95 14.68 C42.83 18.84, 43.54 23.73, 41.99 27.65 C40.44 31.58, 35.56 35.55, 31.64 38.23 C27.72 40.92, 22.81 44.29, 18.48 43.79 C14.15 43.28, 8.65 39.03, 5.64 35.19 C2.62 31.34, 0.81 25.12, 0.4 20.71 C-0.01 16.31, 0.56 12.02, 3.15 8.76 C5.75 5.5, 13.49 2.67, 15.96 1.13 C18.43 -0.42, 17.8 -0.93, 17.96 -0.51" stroke="none" stroke-width="0" fill="#04aaf7"></path><path d="M31.12 3.09 C35.27 4.9, 39.4 8.28, 41.29 12.43 C43.17 16.58, 43.91 23.51, 42.44 27.98 C40.98 32.44, 36.43 36.83, 32.48 39.21 C28.52 41.6, 23.22 42.98, 18.73 42.28 C14.24 41.58, 8.56 38.38, 5.55 35.04 C2.53 31.69, 0.94 26.64, 0.64 22.19 C0.34 17.74, 1.03 11.78, 3.75 8.32 C6.47 4.86, 12.14 2.27, 16.98 1.42 C21.82 0.57, 30.05 2.63, 32.8 3.21 C35.55 3.8, 33.53 4.57, 33.49 4.92 M16 0.04 C20.12 -1.21, 24.81 -0.46, 28.86 1.73 C32.9 3.93, 38.19 9.33, 40.27 13.2 C42.35 17.08, 42.55 20.93, 41.32 25 C40.09 29.08, 36.31 34.64, 32.88 37.63 C29.45 40.62, 25.29 42.86, 20.73 42.94 C16.17 43.02, 8.74 41.48, 5.52 38.12 C2.3 34.75, 1.68 27.63, 1.44 22.75 C1.19 17.88, 1.52 12.29, 4.05 8.87 C6.58 5.45, 14.6 3.55, 16.62 2.26 C18.64 0.96, 16.19 1.15, 16.18 1.11" stroke="#000000" stroke-width="1" fill="none"></path></g><g stroke-linecap="round"><g transform="translate(1836.4211329973746 51.43618199281269) rotate(0 -3.4640896553596576 6.480451691366923)" fill-rule="evenodd"><path d="M0 0 L-1.83 -0.41 L-7.57 -6.27 L-9.75 -6.1 L-11.36 -4.35 L-12.61 2.37 L-11.27 6.74 L-17.42 8.89 L-18 11.42 L-17.2 13.64 L-15.01 14.04 L-12.38 13.35 L-8.7 9.48 L-3.62 17.87 L-1.49 19.38 L-0.42 18.17 L-3.78 4.8 L-1.52 3.64 L1.39 4.35 L3.16 5.87 L6.21 6.29 L9.24 5.87 L10.81 3.22 L10.8 0.63 L4.22 1.11 L5.49 -5.76 L4.23 -6.26 L2.47 -5.35 L-0.24 -0.92 L0 0" stroke="none" stroke-width="0" fill="#40c057" fill-rule="evenodd"></path><path d="M0 0 C-0.31 -0.07, -0.57 0.63, -1.83 -0.41 C-3.09 -1.46, -5.98 -5.62, -7.57 -6.27 C-9.16 -6.93, -10.52 -5.79, -11.36 -4.35 C-12.2 -2.91, -12.63 0.53, -12.61 2.37 C-12.6 4.22, -10.47 5.65, -11.27 6.74 C-12.07 7.83, -16.44 7.74, -17.42 8.89 C-18.41 10.04, -18.04 12.9, -17.2 13.64 C-16.36 14.39, -13.8 14.04, -12.38 13.35 C-10.96 12.66, -10.16 8.72, -8.7 9.48 C-7.24 10.23, -5 16.42, -3.62 17.87 C-2.24 19.32, -0.39 20.35, -0.42 18.17 C-0.44 15.99, -4.08 7.1, -3.78 4.8 C-3.48 2.5, 0.23 4.17, 1.39 4.35 C2.54 4.53, 1.85 5.61, 3.16 5.87 C4.47 6.12, 7.96 6.74, 9.24 5.87 C10.51 5, 11.64 1.43, 10.8 0.63 C9.97 -0.16, 5.11 2.18, 4.22 1.11 C3.34 0.04, 5.78 -4.68, 5.49 -5.76 C5.19 -6.84, 3.43 -6.15, 2.47 -5.35 C1.52 -4.54, 0.17 -1.81, -0.24 -0.92 C-0.65 -0.03, -0.04 -0.15, 0 0 M0 0 C-0.31 -0.07, -0.57 0.63, -1.83 -0.41 C-3.09 -1.46, -5.98 -5.62, -7.57 -6.27 C-9.16 -6.93, -10.52 -5.79, -11.36 -4.35 C-12.2 -2.91, -12.63 0.53, -12.61 2.37 C-12.6 4.22, -10.47 5.65, -11.27 6.74 C-12.07 7.83, -16.44 7.74, -17.42 8.89 C-18.41 10.04, -18.04 12.9, -17.2 13.64 C-16.36 14.39, -13.8 14.04, -12.38 13.35 C-10.96 12.66, -10.16 8.72, -8.7 9.48 C-7.24 10.23, -5 16.42, -3.62 17.87 C-2.24 19.32, -0.39 20.35, -0.42 18.17 C-0.44 15.99, -4.08 7.1, -3.78 4.8 C-3.48 2.5, 0.23 4.17, 1.39 4.35 C2.54 4.53, 1.85 5.61, 3.16 5.87 C4.47 6.12, 7.96 6.74, 9.24 5.87 C10.51 5, 11.64 1.43, 10.8 0.63 C9.97 -0.16, 5.11 2.18, 4.22 1.11 C3.34 0.04, 5.78 -4.68, 5.49 -5.76 C5.19 -6.84, 3.43 -6.15, 2.47 -5.35 C1.52 -4.54, 0.17 -1.81, -0.24 -0.92 C-0.65 -0.03, -0.04 -0.15, 0 0" stroke="#087f5b" stroke-width="1" fill="none"></path></g></g><g stroke-linecap="round"><g stroke-opacity="0.9" fill-opacity="0.9" transform="translate(1810.4020314094269 56.174703491536036) rotate(0 21.660256155259276 -0.06552403565962095)"><path d="M1.17 -1.19 C7.81 -1.11, 33.97 -0.53, 40.91 -0.31 M0.33 0.79 C7.22 1.12, 35.98 0.94, 42.99 1.06" stroke="#000000" stroke-width="1" fill="none"></path></g></g><g stroke-linecap="round"><g stroke-opacity="0.9" fill-opacity="0.9" transform="translate(1815.4973604392012 40.74017456456994) rotate(0 14.65930330192441 2.6276150615775435)"><path d="M0 0 C0.13 0.38, 0.09 1.58, 0.77 2.28 C1.46 2.97, 2.81 3.68, 4.1 4.19 C5.4 4.7, 6.64 5.13, 8.54 5.34 C10.43 5.55, 12.97 5.55, 15.48 5.45 C17.99 5.34, 21.44 5.28, 23.58 4.71 C25.72 4.14, 27.36 2.86, 28.32 2.03 C29.27 1.2, 29.15 0.12, 29.32 -0.26 M0 0 C0.13 0.38, 0.09 1.58, 0.77 2.28 C1.46 2.97, 2.81 3.68, 4.1 4.19 C5.4 4.7, 6.64 5.13, 8.54 5.34 C10.43 5.55, 12.97 5.55, 15.48 5.45 C17.99 5.34, 21.44 5.28, 23.58 4.71 C25.72 4.14, 27.36 2.86, 28.32 2.03 C29.27 1.2, 29.15 0.12, 29.32 -0.26" stroke="#000000" stroke-width="1" fill="none"></path></g></g><g stroke-opacity="0.9" fill-opacity="0.9" stroke-linecap="round" transform="translate(1823.5712763631204 33.82930029876235) rotate(0 7.764217176558077 22.41115194065472)"><path d="M10.82 1.02 C12.3 2.2, 13.24 6, 14.07 9.99 C14.9 13.98, 15.96 20.25, 15.8 24.96 C15.64 29.66, 14.27 34.89, 13.1 38.21 C11.93 41.53, 10.58 44.5, 8.78 44.87 C6.98 45.23, 3.73 43.14, 2.31 40.39 C0.89 37.63, 0.53 33.08, 0.27 28.35 C0 23.62, 0.09 16.41, 0.73 12.01 C1.37 7.6, 2.33 3.63, 4.11 1.91 C5.89 0.19, 10.33 1.69, 11.39 1.67 C12.45 1.65, 10.82 1.38, 10.48 1.78 M5.44 2.13 C6.98 0.41, 8.81 -1.01, 10.18 0.6 C11.54 2.2, 12.66 7.18, 13.64 11.79 C14.62 16.4, 16.44 23.23, 16.03 28.26 C15.62 33.29, 12.46 39.36, 11.2 41.95 C9.94 44.54, 9.87 44.5, 8.47 43.8 C7.07 43.11, 3.99 40.74, 2.79 37.77 C1.59 34.8, 1.42 30.68, 1.3 25.98 C1.18 21.29, 1.23 13.92, 2.06 9.59 C2.89 5.25, 5.78 1.23, 6.3 -0.02 C6.81 -1.28, 5.41 1.63, 5.17 2.05" stroke="#000000" stroke-width="1" fill="none"></path></g><g stroke-linecap="round"><g stroke-opacity="0.9" fill-opacity="0.9" transform="translate(1817.0133119488269 72.47726662301085) rotate(0 14.65930330192441 -2.712666309810544)"><path d="M0 0 C0.68 -0.72, 2.68 -3.4, 4.1 -4.32 C5.53 -5.24, 6.64 -5.3, 8.54 -5.52 C10.43 -5.73, 12.97 -5.73, 15.48 -5.63 C17.99 -5.52, 21.44 -5.45, 23.58 -4.86 C25.72 -4.28, 27.36 -2.95, 28.32 -2.1 C29.27 -1.24, 29.15 -0.12, 29.32 0.27 M0 0 C0.68 -0.72, 2.68 -3.4, 4.1 -4.32 C5.53 -5.24, 6.64 -5.3, 8.54 -5.52 C10.43 -5.73, 12.97 -5.73, 15.48 -5.63 C17.99 -5.52, 21.44 -5.45, 23.58 -4.86 C25.72 -4.28, 27.36 -2.95, 28.32 -2.1 C29.27 -1.24, 29.15 -0.12, 29.32 0.27" stroke="#000000" stroke-width="1" fill="none"></path></g></g><g transform="translate(1776.9701654028786 102.41997276065871) rotate(0 25 13)"><text x="0" y="18" font-family="Virgil, Segoe UI Emoji" font-size="20px" fill="#000000" text-anchor="start" style="white-space: pre;" direction="ltr">slack</text></g><g stroke-linecap="round"><g transform="translate(1641.2558796885924 65.71428571428572) rotate(0 57.176545773616226 0.7952480648358176)"><path d="M0.35 -0.55 C19.72 -0.47, 96.1 0.54, 115.28 0.89 M-0.93 1.78 C18.33 1.97, 94.87 1.95, 114.1 2.14" stroke="#000000" stroke-width="1" fill="none"></path></g><g transform="translate(1641.2558796885924 65.71428571428572) rotate(0 57.176545773616226 0.7952480648358176)"><path d="M84.96 11.56 C91.2 9.43, 98.54 8.91, 113.21 0.64 M85.87 11.81 C94.15 8.97, 100.34 7.68, 114.81 1.2" stroke="#000000" stroke-width="1" fill="none"></path></g><g transform="translate(1641.2558796885924 65.71428571428572) rotate(0 57.176545773616226 0.7952480648358176)"><path d="M85.04 -8.96 C91.35 -6.53, 98.66 -2.49, 113.21 0.64 M85.95 -8.71 C94.04 -6.11, 100.21 -1.96, 114.81 1.2" stroke="#000000" stroke-width="1" fill="none"></path></g></g><g stroke-linecap="round"><g transform="translate(954.5620606781567 287.9073348708471) rotate(89.99999999999994 26.15888185313088 64.53002805836906)" fill-rule="evenodd"><path d="M2.08 -4.82 C2.08 -4.82, 2.08 -4.82, 2.08 -4.82 M2.08 -4.82 C2.08 -4.82, 2.08 -4.82, 2.08 -4.82 M2.36 1.66 C4.27 -1.05, 7.63 -6.69, 12.88 -11.01 M1.73 2.02 C6.61 -3.28, 10.38 -7.87, 11.97 -10.68 M2.43 9.18 C6.85 3.13, 11.76 -1.58, 17.55 -10.37 M2.13 7.28 C6.58 3.13, 9.75 -1.28, 18.22 -12.22 M0.66 13.96 C4.91 8.9, 10.65 0.94, 23.67 -11.99 M2.88 14.12 C8.39 6.14, 14.11 -1.07, 23.88 -11.67 M3.16 19.54 C7.19 15.13, 12.28 9.34, 26.15 -8.74 M0.93 19.1 C9.17 11.91, 16.8 4.37, 28.19 -9.25 M4.08 25.42 C11.49 14.58, 23.23 0.44, 34.22 -7.92 M1.86 25.39 C10.56 17.55, 16.97 7.67, 31.91 -9.4 M1.45 32.08 C15 19.28, 24.43 5.23, 37.36 -8.07 M2.11 31.47 C10.34 22.73, 18.7 11.47, 37.5 -8 M3.49 37.96 C14.55 23.37, 23.52 12.52, 42.9 -9.29 M1.72 37.55 C10.15 29.3, 18.92 19.81, 41.19 -7.21 M0.29 44.46 C15.5 31.65, 25.33 16.23, 46.39 -7.2 M2.6 44.13 C15.47 28.91, 28.57 12.97, 45.92 -7.87 M2.11 48.97 C20.15 28.91, 36.73 10.09, 47.92 -5.19 M3.27 50.45 C13.03 36.56, 23.14 24.66, 48.13 -4.33 M3.13 57.83 C15.84 35.87, 32.81 17.76, 53.04 -0.47 M1.11 57.06 C19.62 34.59, 37.02 16.06, 51.14 -0.95 M52.61 -1.97 C52.61 -1.97, 52.61 -1.97, 52.61 -1.97 M52.61 -1.97 C52.61 -1.97, 52.61 -1.97, 52.61 -1.97 M2.23 62.44 C21.67 39.2, 41.6 16.59, 51.15 4.9 M2.35 62.11 C20.01 41.36, 37.32 22.84, 52.08 4.48 M4.01 67.87 C15.52 53.85, 24.66 40.09, 53.69 9.9 M3.14 67.58 C16.36 53.03, 29.85 37.48, 52.89 11.05 M0.88 75.98 C19.78 55.22, 39.02 34.36, 52.18 17.56 M1.35 75.32 C14.5 59.01, 27.42 44.94, 52.54 16.78 M0.64 81.7 C22.99 59.65, 41.32 35.87, 52.23 21.8 M2.24 80.43 C14.21 65.89, 27.04 50.09, 53.2 21.91 M1.64 86.2 C16.91 71.1, 30.93 54.79, 51.6 28.5 M1.61 87.52 C15.65 70.53, 29.11 54.66, 51.61 29.44 M2.39 90.6 C11.63 79.61, 23.27 68.01, 51.97 36.51 M1.84 91.97 C12.84 81.56, 22.85 68.38, 51.42 35.64 M1.31 97.01 C11.01 85.01, 21.8 73.27, 52.5 39.39 M2.19 98.44 C13.27 84.86, 24.98 71.51, 51.21 41.3 M2.98 105.47 C20.84 84.41, 37.58 62.88, 52.9 46.66 M3.51 103.34 C20.41 82.59, 38.85 61.74, 52.03 46.48 M1.88 111.04 C20.28 90.73, 33.23 74.56, 52.41 53.1 M2.54 111.34 C22.46 89.51, 40.55 66.63, 52.96 53.24 M4.64 116.7 C20.97 95.16, 43.16 72.07, 51.48 60.41 M2.58 115.88 C22.84 93.65, 41.71 70.64, 53.2 58.91 M1.82 122.45 C15.59 109.1, 27.84 94.92, 51.41 66.3 M1.85 123.69 C23.54 98.68, 43.32 75.54, 52.3 64.6 M1.45 130.95 C15.63 111.8, 30.87 96.5, 52.03 70.16 M1.47 129.98 C21.96 106.93, 41.17 84.67, 52.24 72.43 M4.12 132.88 C17.85 115.92, 33.11 100.89, 50.71 78.38 M3.07 135.23 C20.41 113.13, 39.75 91.7, 53.03 78.27 M5.23 136.34 C13.53 125.65, 24.7 115.21, 53.35 85.55 M5.58 138.2 C18.01 123.65, 29.88 111.47, 52.16 84.53 M10.14 140.7 C17.79 128.08, 25.9 117.43, 52.04 88.24 M8.81 139.17 C19.8 129.52, 29.03 118.05, 52.75 89.35 M11.69 141.76 C23.74 131.13, 31.89 119.63, 52.75 93.99 M13.5 140.67 C25.4 127.1, 37.81 112.35, 51.76 95.18 M16.6 142.32 C28.44 129.74, 38.28 115.54, 52.98 103.03 M18.24 141.51 C29.52 130.23, 39.26 116.21, 52.11 101.96 M22.44 142.63 C32.1 132.13, 41.58 119.2, 52.72 109.61 M20.92 142.76 C33.24 130.85, 42.62 117.99, 52.22 107.89 M27.3 142.65 C36.99 133.83, 41.61 125.81, 53.56 115.15 M28.89 141.49 C32.47 135.76, 38.56 129.9, 51.51 114.2 M32.84 139.83 C40.84 134.64, 44.34 128.21, 52.23 118.07 M34.55 142.07 C39.37 133.88, 45.37 126.25, 52.5 120.38 M38.64 142.02 C44.69 134.31, 49.54 128.72, 52.36 126.72 M40.06 140.62 C44.1 137.06, 47.5 131.34, 53.06 126.68 M45.8 140 C47.33 136, 52.97 133.76, 55.46 130.85 M44.47 140.49 C47.65 137.39, 49.69 135.64, 54.45 130.94" stroke="#40c057" stroke-width="0.5" fill="none"></path><path d="M-1.16 0.37 C-1.13 19.95, -0.32 95.25, -0.07 116.85 C0.18 138.45, -0.1 126.88, 0.34 129.98 C0.78 133.08, 0.65 133.84, 2.55 135.46 C4.46 137.09, 7.69 138.66, 11.76 139.73 C15.84 140.79, 21.7 141.94, 27.02 141.88 C32.34 141.81, 39.9 140.7, 43.7 139.33 C47.51 137.96, 48.51 135.18, 49.85 133.66 C51.2 132.13, 51.39 132.82, 51.77 130.17 C52.15 127.52, 52.15 137.66, 52.15 117.77 C52.15 97.88, 51.74 30.32, 51.76 10.81 C51.78 -8.7, 52.63 3.6, 52.26 0.72 C51.9 -2.15, 51.26 -4.88, 49.57 -6.45 C47.89 -8.02, 46.31 -7.75, 42.16 -8.7 C38.02 -9.66, 29.51 -11.66, 24.69 -12.18 C19.88 -12.69, 17.15 -13.07, 13.27 -11.77 C9.39 -10.48, 3.55 -6.53, 1.42 -4.39 C-0.7 -2.25, 0.74 0.36, 0.52 1.07 C0.29 1.78, 0.3 0.17, 0.07 -0.13 M0.43 -0.47 C0.3 19.37, -1.03 96.46, -1.14 118.41 C-1.26 140.36, -0.89 128.23, -0.25 131.22 C0.4 134.21, 0.38 134.96, 2.73 136.35 C5.07 137.75, 9.59 138.87, 13.8 139.59 C18.01 140.3, 22.83 140.35, 27.99 140.64 C33.14 140.94, 40.74 142.64, 44.73 141.38 C48.71 140.13, 50.42 135.13, 51.89 133.11 C53.36 131.1, 53.41 132, 53.57 129.31 C53.73 126.62, 53.13 137.06, 52.85 116.96 C52.56 96.85, 52.17 28, 51.87 8.67 C51.57 -10.67, 51.91 3.6, 51.05 0.92 C50.19 -1.76, 48.23 -5.84, 46.69 -7.41 C45.16 -8.97, 45.5 -7.59, 41.83 -8.46 C38.17 -9.34, 29.81 -12.22, 24.69 -12.66 C19.56 -13.1, 14.65 -12.66, 11.1 -11.11 C7.56 -9.55, 5.33 -4.9, 3.4 -3.32 C1.47 -1.74, 0.3 -2.19, -0.48 -1.63 C-1.26 -1.07, -1.22 -0.33, -1.28 0.06" stroke="#087f5b" stroke-width="1" fill="none"></path></g></g><g stroke-linecap="round"><g transform="translate(930.0346502737998 347.01229142841225) rotate(89.99999999999994 24.721624364644867 5.54137005047869)"><path d="M0.37 -0.24 C0.71 0.85, 0.27 3.83, 1.37 5.4 C2.46 6.96, 4.79 8.13, 6.96 9.17 C9.12 10.2, 11.23 11.24, 14.36 11.59 C17.5 11.94, 21.43 11.34, 25.77 11.27 C30.12 11.21, 36.64 12.52, 40.43 11.21 C44.22 9.89, 46.84 5.4, 48.49 3.38 C50.14 1.35, 49.79 -0.26, 50.33 -0.94 M-0.89 -1.41 C-0.66 -0.6, -0.73 1.48, 0.44 3.45 C1.6 5.42, 3.79 8.89, 6.12 10.41 C8.44 11.93, 10.84 12.41, 14.4 12.55 C17.95 12.68, 22.89 11.55, 27.43 11.22 C31.98 10.89, 38.08 11.57, 41.65 10.55 C45.22 9.53, 47.62 7.1, 48.87 5.09 C50.11 3.09, 48.82 -0.26, 49.1 -1.48" stroke="#087f5b" stroke-width="1" fill="none"></path></g></g><g stroke-linecap="round"><g transform="translate(975.4604314222418 347.35137655341236) rotate(89.99999999999994 24.191751353232803 4.340888409453612)"><path d="M-0.24 0.03 C0.23 0.62, 0.47 2.75, 1.67 3.92 C2.86 5.09, 4.81 6.29, 6.94 7.06 C9.07 7.82, 11.28 8.14, 14.44 8.52 C17.59 8.9, 21.36 9.45, 25.86 9.34 C30.35 9.24, 37.77 8.92, 41.41 7.9 C45.05 6.88, 46.23 4.47, 47.7 3.24 C49.17 2.01, 49.76 1.26, 50.21 0.53 M-1.83 -1 C-1.38 -0.25, -0.43 3.85, 0.89 5.38 C2.21 6.91, 3.82 7.54, 6.1 8.16 C8.37 8.78, 10.95 8.86, 14.53 9.09 C18.12 9.32, 23.44 9.96, 27.61 9.54 C31.77 9.13, 36.19 7.3, 39.55 6.6 C42.9 5.9, 46.17 6.33, 47.74 5.35 C49.32 4.37, 48.23 1.48, 49 0.72" stroke="#087f5b" stroke-width="1" fill="none"></path></g></g><g stroke-linecap="round" transform="translate(1022.0652045543568 341.49818063252417) rotate(89.99999999999994 25.639064267762706 11.398576284497949)"><path d="M36.69 1.36 C41.52 2.02, 46.38 3.83, 48.83 5.86 C51.27 7.89, 52.76 11.01, 51.36 13.54 C49.96 16.06, 45.1 19.35, 40.43 21.03 C35.75 22.72, 28.92 23.78, 23.31 23.64 C17.71 23.5, 10.69 21.96, 6.81 20.2 C2.93 18.43, 0.26 15.61, 0 13.04 C-0.25 10.48, 2.09 6.92, 5.28 4.82 C8.48 2.71, 13.11 0.8, 19.18 0.4 C25.25 0.01, 37.18 1.81, 41.68 2.44 C46.18 3.07, 46.39 3.94, 46.19 4.19 M33.5 1.72 C38.41 2.34, 43.6 4.26, 46.41 6.19 C49.22 8.13, 50.96 10.93, 50.35 13.34 C49.73 15.74, 46.81 18.86, 42.72 20.63 C38.63 22.41, 31.23 24.09, 25.81 23.99 C20.39 23.88, 14.24 21.76, 10.19 19.99 C6.14 18.21, 2.87 15.81, 1.5 13.31 C0.13 10.81, -0.54 7.09, 2 4.99 C4.53 2.88, 11.68 1.38, 16.73 0.68 C21.78 -0.02, 29.78 0.64, 32.28 0.77 C34.79 0.89, 31.84 1.46, 31.75 1.42" stroke="none" stroke-width="0" fill="#fff"></path><path d="M23.9 -0.82 C28.99 -1.09, 35.69 0.42, 40.24 1.95 C44.79 3.47, 49.97 5.98, 51.19 8.35 C52.42 10.72, 50.22 13.8, 47.6 16.19 C44.99 18.58, 40.41 21.77, 35.5 22.7 C30.6 23.62, 23.45 22.44, 18.18 21.74 C12.91 21.05, 6.83 20.29, 3.89 18.51 C0.94 16.73, -0.35 13.67, 0.49 11.07 C1.33 8.47, 4.14 4.62, 8.91 2.9 C13.68 1.18, 25.23 1.11, 29.1 0.76 C32.96 0.4, 32.13 0.87, 32.11 0.79 M18.52 0.74 C23.17 -0.46, 29.72 -0.94, 34.47 -0.33 C39.23 0.28, 44.44 1.96, 47.03 4.39 C49.63 6.82, 50.96 11.73, 50.03 14.23 C49.1 16.74, 45.4 18.21, 41.45 19.4 C37.5 20.6, 31.9 21.26, 26.34 21.4 C20.78 21.55, 12.63 21.69, 8.07 20.28 C3.51 18.86, -0.34 15.43, -1.01 12.91 C-1.67 10.4, 0.86 7.47, 4.08 5.19 C7.29 2.92, 15.94 -0.16, 18.28 -0.74 C20.63 -1.31, 18.23 1.52, 18.15 1.74" stroke="#087f5b" stroke-width="1" fill="none"></path></g><g stroke-linecap="round"><g transform="translate(1752.684451117164 97.14285714285717) rotate(0 -53.57557661608007 -1.055046922638354)"><path d="M-0.58 0.39 C-18.37 0.14, -89.49 -0.6, -107.39 -0.74 M1.32 -0.45 C-16.6 -1.11, -90.66 -2.19, -108.47 -2.5" stroke="#000000" stroke-width="1" fill="none"></path></g><g transform="translate(1752.684451117164 97.14285714285717) rotate(0 -53.57557661608007 -1.055046922638354)"><path d="M-79.46 -12.72 C-85.9 -11.42, -92.44 -7.5, -109.11 -1.34 M-79.45 -12.44 C-88.2 -9.81, -95.83 -6.97, -108.96 -3.19" stroke="#000000" stroke-width="1" fill="none"></path></g><g transform="translate(1752.684451117164 97.14285714285717) rotate(0 -53.57557661608007 -1.055046922638354)"><path d="M-79.79 7.8 C-86.28 4.04, -92.74 2.9, -109.11 -1.34 M-79.79 8.07 C-88.33 5.37, -95.87 2.87, -108.96 -3.19" stroke="#000000" stroke-width="1" fill="none"></path></g></g><g stroke-linecap="round"><g transform="translate(149.82730826002125 101.42857142857144) rotate(0 53.15907585011996 5.776075425691545)"><path d="M-0.72 -1.16 C16.6 0.87, 87 9.49, 104.81 11.75 M1.1 0.85 C18.72 3.02, 89.63 10.59, 107.04 12.71" stroke="#000000" stroke-width="1" fill="none"></path></g><g transform="translate(149.82730826002125 101.42857142857144) rotate(0 53.15907585011996 5.776075425691545)"><path d="M75.94 18.22 C86.89 17.96, 98.88 16.66, 107.32 13.23 M77.44 20.73 C89.15 16.38, 101.08 14.3, 106.33 13.69" stroke="#000000" stroke-width="1" fill="none"></path></g><g transform="translate(149.82730826002125 101.42857142857144) rotate(0 53.15907585011996 5.776075425691545)"><path d="M78.25 -2.17 C88.27 5.13, 99.4 11.4, 107.32 13.23 M79.75 0.34 C90.65 4, 101.67 9.91, 106.33 13.69" stroke="#000000" stroke-width="1" fill="none"></path></g></g><g stroke-linecap="round"><g transform="translate(1815.6087986413854 145.71450994964664) rotate(0 -513.6205739920388 104.71283731461753)"><path d="M-287.69 1.41 C-286.4 70.15, -287.96 141.89, -287.82 209.04 M-287.2 0.39 C-286.68 53.15, -286.72 108.28, -287.27 207.73 M-287.78 208.16 C-445.58 208.18, -605.68 209.14, -740.06 207.21 M-287.15 208.54 C-428.57 209.25, -569.18 209.41, -740.41 206.99" stroke="#000000" stroke-width="1" fill="none"></path></g><g transform="translate(1815.6087986413854 145.71450994964664) rotate(0 -513.6205739920388 104.71283731461753)"><path d="M-712.65 198.61 C-720.24 199.12, -731.68 203.08, -741.09 207.97 M-712.1 197.46 C-718.85 198.63, -726.23 202.52, -740.47 206.49" stroke="#000000" stroke-width="1" fill="none"></path></g><g transform="translate(1815.6087986413854 145.71450994964664) rotate(0 -513.6205739920388 104.71283731461753)"><path d="M-712.87 219.13 C-720.31 212.61, -731.68 209.55, -741.09 207.97 M-712.32 217.98 C-719.01 213.83, -726.33 212.4, -740.47 206.49" stroke="#000000" stroke-width="1" fill="none"></path></g></g><g transform="translate(1272.6844511171641 329.57142857142856) rotate(0 75 26)"><text x="0" y="18" font-family="Virgil, Segoe UI Emoji" font-size="20px" fill="#000000" text-anchor="start" style="white-space: pre;" direction="ltr">Responses from</text><text x="0" y="44" font-family="Virgil, Segoe UI Emoji" font-size="20px" fill="#000000" text-anchor="start" style="white-space: pre;" direction="ltr">slack members</text></g><g stroke-linecap="round"><g transform="translate(878.40731731154 357.14553281843166) rotate(0 -222.1679089213486 -112.41355313179452)"><path d="M19.34 0.51 C-95.32 -0.04, -207.43 -0.75, -463.06 -2.42 M18.24 -0.15 C-104.09 -2.16, -226.44 -3.24, -462.56 -3.12 M-463.68 -3.86 C-461.85 -70.39, -460.68 -133.88, -458.44 -224.89 M-462.42 -3.04 C-462.96 -73.5, -462.21 -143.97, -460.21 -225.34" stroke="#000000" stroke-width="1" fill="none"></path></g><g transform="translate(878.40731731154 357.14553281843166) rotate(0 -222.1679089213486 -112.41355313179452)"><path d="M-448.86 -195.83 C-454.12 -205.41, -453.54 -212.17, -460.69 -224.39 M-451.41 -197.37 C-453.66 -204.02, -456.18 -212.06, -459.53 -226.01" stroke="#000000" stroke-width="1" fill="none"></path></g><g transform="translate(878.40731731154 357.14553281843166) rotate(0 -222.1679089213486 -112.41355313179452)"><path d="M-469.37 -196.25 C-469.81 -205.87, -464.4 -212.54, -460.69 -224.39 M-471.92 -197.79 C-468.97 -204.18, -466.27 -212.12, -459.53 -226.01" stroke="#000000" stroke-width="1" fill="none"></path></g></g></svg>